<?xml version="1.0" encoding="UTF-8" standalone="no"?>
<svg
   xmlns:dc="http://purl.org/dc/elements/1.1/"
   xmlns:cc="http://creativecommons.org/ns#"
   xmlns:rdf="http://www.w3.org/1999/02/22-rdf-syntax-ns#"
   xmlns:svg="http://www.w3.org/2000/svg"
   xmlns="http://www.w3.org/2000/svg"
   xmlns:sodipodi="http://sodipodi.sourceforge.net/DTD/sodipodi-0.dtd"
   xmlns:inkscape="http://www.inkscape.org/namespaces/inkscape"
   width="113.30611mm"
   height="58.110081mm"
   viewBox="0 0 113.30611 58.110081"
   version="1.1"
   id="svg10502"
   inkscape:version="1.0.2 (e86c870879, 2021-01-15, custom)"
   sodipodi:docname="logo.svg">
  <defs
     id="defs10496" />
  <sodipodi:namedview
     id="base"
     pagecolor="#ffffff"
     bordercolor="#666666"
     borderopacity="1.0"
     inkscape:pageopacity="0.0"
     inkscape:pageshadow="2"
     inkscape:zoom="2.1882726"
     inkscape:cx="220.34193"
     inkscape:cy="123.23445"
     inkscape:document-units="mm"
     inkscape:current-layer="Layer1017"
     inkscape:document-rotation="0"
     showgrid="false"
     inkscape:window-width="1920"
     inkscape:window-height="1001"
     inkscape:window-x="-9"
     inkscape:window-y="-9"
     inkscape:window-maximized="1"
     fit-margin-top="0.6" />
  <metadata
     id="metadata10499">
    <rdf:RDF>
      <cc:Work
         rdf:about="">
        <dc:format>image/svg+xml</dc:format>
        <dc:type
           rdf:resource="http://purl.org/dc/dcmitype/StillImage" />
        <dc:title></dc:title>
      </cc:Work>
    </rdf:RDF>
  </metadata>
  <g
     inkscape:label="Слой 1"
     inkscape:groupmode="layer"
     id="layer1"
     transform="translate(-6.5195567,-70.230674)">
    <rect
       style="fill:#a40431;stroke:#a40431;stroke-width:0.636"
       id="rect11254"
       width="130.0116"
       height="71.466499"
       x="24.813097"
       y="153.4791"
       ry="1.6602604" />
    <g
       id="Layer1017"
       transform="matrix(0.26458333,0,0,0.26458333,-121.16173,28.642378)">
      <rect
         style="fill:#423dff;fill-opacity:1;stroke-width:2.33088"
         id="rect892"
         width="400.78241"
         height="241.87752"
         x="1338.2908"
         y="-132.00351"
         ry="4.8705916" />
      <path
         d="m 811.22778,249.08642 c 3.8441,-4.2185 9.2991,-6.9047 15.4897,-6.9047 5.2148,0 9.9107,1.9123 13.5606,5.0417 -0.428,-2.9205 -0.9513,-5.8223 -1.5755,-8.6966 -4.3872,0.6876 -9.0263,-0.005 -12.8486,-2.1632 -5.7007,-3.2181 -10.3649,-10.0658 -12.6935,-16.0755 -0.8053,-2.0784 -0.6534,-4.1947 0.441,-6.1365 0.116,-0.2058 0.239,-0.4033 0.3691,-0.593 -1.7988,-2.4545 -3.253,-5.1647 -4.2503,-7.7286 -0.1448,-0.3711 -0.259,-0.7433 -0.3427,-1.1157 -3.59,-2.1759 -6.8042,-5.4457 -9.0011,-8.6556 -0.6979,-1.0191 -1.112,-2.1164 -1.237,-3.2565 -3.409,-1.4252 -6.6325,-3.7102 -9.0357,-6.1132 -1.5767,-1.5769 -2.2921,-3.5756 -2.0742,-5.7946 0.0732,-0.7446 0.2444,-1.4445 0.5097,-2.0928 -3.6513,-2.1988 -6.8692,-5.7027 -8.9748,-9.1139 -1.1744,-1.8981 -1.4102,-4.0074 -0.6868,-6.1189 0.7234,-2.1115 2.2062,-3.6343 4.2979,-4.4135 4.5224,-1.685 10.4618,-2.4614 15.2583,-1.1583 0.1945,-0.794 0.421,-1.5633 0.6738,-2.2955 0.7277,-2.107 2.2108,-3.6244 4.3007,-4.3999 2.0897,-0.7756 4.2038,-0.593 6.13,0.5292 2.8105,1.6376 5.6888,4.066 7.7828,6.8806 1.1721,-1.1883 2.6747,-1.8882 4.42,-2.0478 2.215,-0.2024 4.2035,0.5221 5.7694,2.1022 2.2722,2.2929 4.4232,5.3614 5.7852,8.6065 1.2079,-0.6284 2.5645,-0.8784 4.0133,-0.7296 2.2192,0.2276 4.0365,1.3272 5.2645,3.1816 2.1779,3.2814 4.0229,7.5438 4.6752,11.734 1.364,-0.432 2.8077,-0.4249 4.2636,0.0309 2.1294,0.6667 3.6907,2.1076 4.5255,4.1766 1.2124,3.0039 2.0801,6.6141 2.2686,10.1747 0.377,0.0581 0.7557,0.1465 1.1355,0.2656 2.1274,0.667 3.6873,2.1067 4.5221,4.174 1.0678,2.6444 1.9143,5.7226 2.3565,8.8741 0.877,-1.1851 2.0902,-2.0392 3.5855,-2.512 2.1257,-0.6719 4.2285,-0.3856 6.0971,0.8302 4.3599,2.8369 8.8761,7.5603 10.6585,12.5737 0.9408,-0.4136 1.8828,-0.7682 2.8032,-1.0585 2.1274,-0.6712 4.2313,-0.3827 6.0996,0.8359 1.8683,1.2187 2.9803,3.0283 3.2235,5.2456 0.3901,3.5563 0.0947,7.7371 -1.1157,11.3879 1.8836,0.1224 3.5394,0.9396 4.8362,2.395 1.4865,1.6681 2.0855,3.7105 1.7359,5.9144 -0.5538,3.5048 -1.8807,7.418 -3.914,10.6742 1.4298,0.57 2.5976,1.5789 3.4344,2.9795 1.1441,1.9151 1.3493,4.0291 0.5944,6.1285 -1.4541,4.0445 -4.0688,8.4897 -7.3975,11.7005 1.3997,0.8524 2.4165,2.1292 2.9809,3.7594 0.7299,2.1072 0.5006,4.2182 -0.665,6.1191 -1.8377,2.9976 -4.462,6.1021 -7.4815,8.5278 0.2608,0.4365 0.4799,0.909 0.6554,1.4161 0.7288,2.1062 0.4994,4.2154 -0.665,6.1158 -3.5289,5.7591 -9.6514,11.9863 -16.134,14.2344 -5.3254,1.8468 -11.5339,1.1742 -16.5549,-1.4799 -5.921,6.0902 -12.4634,11.6444 -19.3382,16.5707 -3.7211,2.6663 -7.854,5.4417 -11.9106,7.6159 v 11.8043 c 0,5.0434 -4.3977,10.3799 -9.3907,11.2241 l -10.5618,1.7861 c -22.4139,3.7905 -45.0922,6.3927 -67.7597,8.0745 -17.8509,1.3243 -35.8566,2.1203 -53.7593,2.1203 -17.3384,0 -34.7786,-0.7577 -52.0691,-2.0047 -22.0314,-1.5891 -44.0776,-4.0413 -65.8757,-7.6226 l -10.6195,-1.7447 c -5.0227,-0.8252 -9.4399,-6.1594 -9.4399,-11.2289 v -79.691 c 0,-5.2875 4.5675,-10.616 9.8374,-11.2873 l 11.0573,-1.4088 c 4.176,-0.532 8.3566,-1.0281 12.5405,-1.4927 19.995,-2.2198 40.1037,-3.757 60.194,-4.7948 14.921,-0.7705 29.9614,-1.3207 44.9045,-1.3207 17.4639,0 34.9906,0.5545 52.4284,1.4735 19.5699,1.0312 39.1604,2.558 58.6438,4.7718 -2.0404,-2.5619 -4.1862,-5.0318 -6.4395,-7.3879 -2.8159,2.1435 -6.2478,3.4974 -9.7387,3.6601 -5.6894,0.2656 -12.193,-2.5464 -16.6949,-5.8958 -1.7309,-1.2867 -2.7216,-3.0807 -2.8817,-5.2121 -2.1382,-0.9229 -4.1474,-2.0979 -5.8507,-3.3664 -0.1599,-0.1188 -0.3133,-0.2421 -0.4604,-0.3696 -3.4773,-0.0309 -7.0968,-0.9117 -10.0624,-2.1983 -0.887,-0.3838 -1.6523,-0.9008 -2.2847,-1.5381 -2.9577,0.3904 -6.0755,0.1868 -8.7568,-0.4272 -2.1731,-0.4977 -3.8413,-1.8099 -4.8359,-3.8052 -0.1622,-0.3248 -0.2988,-0.6531 -0.4105,-0.9839 -3.4197,-0.1216 -6.9778,-1.1395 -9.8365,-2.5571 -1.9953,-0.9893 -3.3106,-2.6518 -3.8146,-4.8212 -0.504,-2.1693 -0.0564,-4.2412 1.2983,-6.0089 2.3349,-3.0467 5.8311,-6.0202 9.5635,-7.503 -0.0757,-0.2786 -0.1448,-0.5559 -0.2078,-0.8308 -0.4963,-2.1688 -0.0431,-4.2373 1.3147,-5.9998 1.3581,-1.7626 3.2423,-2.7287 5.4661,-2.8021 2.4415,-0.0808 5.1565,0.2461 7.6742,1.0349 0.4785,-1.0683 1.2291,-1.9998 2.2334,-2.7603 1.7785,-1.3468 3.8574,-1.7816 6.0183,-1.2632 2.3782,0.5678 4.9099,1.5755 7.1583,2.9651 0.6024,-0.6764 1.3462,-1.2373 2.2198,-1.6696 1.9984,-0.9885 4.1205,-1.0262 6.1509,-0.1103 2.7544,1.2416 5.6336,3.1493 7.9274,5.4805 0.7455,-0.5766 1.6166,-1.0009 2.5982,-1.26 2.1592,-0.5698 4.2494,-0.1806 6.0582,1.1285 2.0427,1.478 4.0825,3.4228 5.7563,5.6174 0.0335,-0.009 0.0669,-0.0184 0.1007,-0.0272 2.154,-0.5695 4.2395,-0.1843 6.0474,1.1177 4.5445,3.2717 9.197,8.6882 10.6418,14.1814 1.1189,4.2551 0.4088,8.9856 -1.6996,12.8909 3.1345,3.6467 6.2251,7.7227 8.996,11.9211 z m 16.621,37.1928 v 34.7091 c 5.841,-4.9062 11.3232,-10.2146 16.2932,-15.9256 -3.4682,-3.282 -5.9,-7.7332 -6.4803,-12.4104 -0.3948,-3.1844 0.027,-6.6875 0.9581,-10.0984 -3.0818,2.158 -6.7563,3.5101 -10.771,3.7253 z m 27.5635,-53.7109 c 0.6058,3.767 1.0403,7.5717 1.3138,11.3848 0.3765,-0.606 0.8348,-1.1398 1.3697,-1.5956 -0.9232,-3.57 -1.0794,-7.5203 -0.6607,-10.9485 -0.6534,0.4246 -1.3292,0.8124 -2.0228,1.1593 z"
         style="fill:#ffffff;fill-rule:evenodd"
         id="path958" />
      <rect
         style="opacity:1;fill:#ffffff;stroke-width:2.64567;fill-opacity:1"
         id="rect893"
         width="43.289715"
         height="57.286957"
         x="807.00214"
         y="268.89661"
         ry="6.2750001" />
      <g
         id="Layer1018"
         transform="translate(0,-6)">
        <path
           d="m 560.2673,362.1154 c -1.4952,-0.2467 -3.4073,-2.5604 -3.4073,-4.1241 v -79.6908 c 0,-1.6926 1.9211,-3.9409 3.5472,-4.1453 l 11.0573,-1.4086 c 45.2684,-5.7643 93.506,-7.5504 116.7291,-7.5504 26.1955,0 72.9036,1.4911 119.0963,7.2524 l 11.0885,1.3844 c 1.6352,0.2044 3.5573,2.4416 3.5573,4.1483 v 79.4059 c 0,1.5506 -1.9121,3.8754 -3.3911,4.1251 l -10.562,1.7862 c -46.4605,7.8525 -92.346,10.0937 -120.3186,10.0937 -26.8871,0 -71.6561,-2.1234 -116.7774,-9.5319 z"
           style="fill:#a40431;fill-rule:evenodd"
           id="path960" />
      </g>
      <g
         id="Layer1019"
         transform="translate(0,-6)">
        <path
           d="m 807.016,357.1999 c -46.0869,7.7911 -91.605,10.0143 -119.352,10.0143 -26.6726,0 -71.0801,-2.1084 -115.838,-9.4585 l -8.9852,-1.475 v -76.2112 l 9.3547,-1.1901 c 44.9844,-5.726 92.921,-7.5021 115.9981,-7.5021 26.0374,0 72.4647,1.477 118.3804,7.2081 l 9.3809,1.169 v 75.9332 z"
           style="fill:#a40431;fill-rule:evenodd"
           id="path963" />
      </g>
      <g
         id="Layer1020"
         transform="translate(0,-6)">
        <path
           d="m 687.664,363.2079 c -26.5317,0 -70.7076,-2.0953 -115.2309,-9.4071 l -5.7179,-0.9404 v -69.2457 l 5.9545,-0.7602 c 44.8012,-5.7059 92.5414,-7.4749 115.5239,-7.4749 25.9357,0 72.1807,1.475 117.9152,7.1809 l 5.9697,0.745 v 68.979 l -5.6867,0.9615 c -45.8463,7.7488 -91.1267,9.9619 -118.7278,9.9619 z"
           style="fill:#ffffff;fill-rule:evenodd"
           id="path966" />
      </g>
      <g
         id="Layer1021"
         transform="translate(0,-6)">
        <path
           d="m 805.2953,289.5179 v 56.811 c -45.3962,7.6803 -90.285,9.8722 -117.6313,9.8722 -26.287,0 -70.0813,-2.0811 -114.1656,-9.3235 v -57.0677 c 44.4659,-5.6606 91.8778,-7.4196 114.6952,-7.4196 25.7565,0 71.6984,1.46 117.1017,7.1276 z"
           style="fill:#a40431;fill-rule:evenodd"
           id="path969" />
      </g>
      <path
         d="m 878.5026,228.1242 c 0,0 11.7908,57.0698 -52.9051,105.1859 0,0 72.8067,-38.7621 52.9051,-105.1859 z"
         style="fill:#d7b369;fill-rule:evenodd"
         id="path972" />
      <path
         d="m 859.0487,290.5153 c -0.9085,-7.334 -8.3637,-14.4201 -8.3637,-14.4201 0,0 -5.5007,8.6915 -4.5911,16.0258 0.9095,7.3329 7.884,10.5321 7.884,10.5321 0,0 5.9803,-4.8049 5.0708,-12.1378 z"
         style="fill:#d7b369;fill-rule:evenodd"
         id="path974" />
      <path
         d="m 868.1805,276.524 c -0.7921,-6.3877 -7.2855,-12.5579 -7.2855,-12.5579 0,0 -4.788,7.5692 -3.9983,13.9569 0.7934,6.3864 6.8663,9.1722 6.8663,9.1722 0,0 5.2096,-4.1848 4.4175,-10.5712 z"
         style="fill:#d7b369;fill-rule:evenodd"
         id="path976" />
      <path
         d="m 871.4141,268.0298 c 0,0 3.7385,-4.7753 1.7184,-10.2555 -2.02,-5.4815 -9.0345,-9.5916 -9.0345,-9.5916 0,0 -2.6674,7.6796 -0.6473,13.1601 2.021,5.4802 7.9634,6.687 7.9634,6.687 z"
         style="fill:#d7b369;fill-rule:evenodd"
         id="path978" />
      <path
         d="m 875.9837,248.7919 c 0,0 2.5674,-4.9688 -0.204,-9.5892 -2.7731,-4.6195 -9.8327,-7.1407 -9.8327,-7.1407 0,0 -1.1011,7.4174 1.672,12.0355 2.7717,4.6207 8.3647,4.6944 8.3647,4.6944 z"
         style="fill:#d7b369;fill-rule:evenodd"
         id="path980" />
      <path
         d="m 883.357,240.9719 c 0,0 5.0163,0.1212 7.6561,-3.927 2.6397,-4.0482 1.9046,-10.7365 1.9046,-10.7365 0,0 -6.4174,2.0248 -9.0558,6.073 -2.6401,4.0495 -0.5049,8.5905 -0.5049,8.5905 z"
         style="fill:#d7b369;fill-rule:evenodd"
         id="path982" />
      <path
         d="m 879.2257,232.5692 c 0,0 3.654,-4.2323 2.0341,-9.3721 -1.6184,-5.1382 -7.8967,-9.2352 -7.8967,-9.2352 0,0 -2.798,6.9566 -1.1782,12.0948 1.6175,5.1398 7.0408,6.5125 7.0408,6.5125 z"
         style="fill:#d7b369;fill-rule:evenodd"
         id="path984" />
      <path
         d="m 887.422,247.805 c -3.8415,3.4224 -2.9155,8.6831 -2.9155,8.6831 0,0 5.117,1.5259 8.9612,-1.8952 3.8415,-3.4224 4.952,-10.4965 4.952,-10.4965 0,0 -7.1562,0.2875 -10.9977,3.7086 z"
         style="fill:#d7b369;fill-rule:evenodd"
         id="path986" />
      <path
         d="m 885.8153,264.3434 c -5.0173,2.9916 -5.1136,9.0551 -5.1136,9.0551 0,0 5.3795,2.799 10.3969,-0.1925 5.0173,-2.9902 7.7722,-10.6389 7.7722,-10.6389 0,0 -8.0395,-1.2149 -13.0555,1.7763 z"
         style="fill:#d7b369;fill-rule:evenodd"
         id="path988" />
      <path
         d="m 861.6494,307.6489 c 0,0 5.9481,4.8449 12.9309,2.425 6.9812,-2.4227 12.3536,-11.1936 12.3536,-11.1936 0,0 -9.6485,-3.5628 -16.6314,-1.1412 -6.9825,2.4213 -8.6531,9.9098 -8.6531,9.9098 z"
         style="fill:#d7b369;fill-rule:evenodd"
         id="path990" />
      <path
         d="m 873.6398,290.0285 c 0,0 4.8924,3.9829 10.6304,1.9925 5.7404,-1.9901 10.1558,-9.2019 10.1558,-9.2019 0,0 -7.9314,-2.9285 -13.6731,-0.9371 -5.7394,1.9891 -7.1131,8.1465 -7.1131,8.1465 z"
         style="fill:#d7b369;fill-rule:evenodd"
         id="path992" />
      <path
         d="m 800.5217,170.2872 c 0,0 49.6109,22.9703 49.7702,98.6094 0,0 11.4215,-76.5322 -49.7702,-98.6094 z"
         style="fill:#d7b369;fill-rule:evenodd"
         id="path994" />
      <path
         d="m 836.7019,219.7844 c -6.0373,-3.4082 -15.5411,-1.7433 -15.5411,-1.7433 0,0 3.4817,8.9988 9.5193,12.4071 6.0373,3.4083 12.3418,-0.064 12.3418,-0.064 0,0 -0.2838,-7.1905 -6.32,-10.5998 z"
         style="fill:#d7b369;fill-rule:evenodd"
         id="path996" />
      <path
         d="m 831.2513,205.09 c -5.2583,-2.969 -13.5354,-1.5189 -13.5354,-1.5189 0,0 3.0329,7.8365 8.2899,10.8065 5.2583,2.9677 10.7496,-0.0558 10.7496,-0.0558 0,0 -0.2471,-6.2642 -5.5041,-9.2318 z"
         style="fill:#d7b369;fill-rule:evenodd"
         id="path998" />
      <path
         d="m 826.6518,197.9089 c 0,0 -1.5128,-5.4839 -6.7722,-7.0206 -5.261,-1.5353 -12.2755,1.4572 -12.2755,1.4572 0,0 4.301,6.2985 9.5607,7.8342 5.2607,1.5363 9.487,-2.2708 9.487,-2.2708 z"
         style="fill:#d7b369;fill-rule:evenodd"
         id="path1000" />
      <path
         d="m 814.6984,183.7254 c 0,0 -2.3132,-4.71 -7.3437,-5.2001 -5.0291,-0.4881 -10.8728,3.4271 -10.8728,3.4271 0,0 4.9779,4.9695 10.0084,5.459 5.0301,0.4891 8.2081,-3.686 8.2081,-3.686 z"
         style="fill:#d7b369;fill-rule:evenodd"
         id="path1002" />
      <path
         d="m 812.9194,173.8012 c 0,0 2.8915,-3.7146 1.3135,-7.9658 -1.5795,-4.2502 -7.0327,-7.4292 -7.0327,-7.4292 0,0 -2.0554,5.9686 -0.476,10.2184 1.5794,4.2502 6.1952,5.1766 6.1952,5.1766 z"
         style="fill:#d7b369;fill-rule:evenodd"
         id="path1004" />
      <path
         d="m 804.2767,172.2241 c 0,0 -1.1496,-5.1183 -5.9293,-6.7664 -4.7773,-1.6471 -11.3716,0.7992 -11.3716,0.7992 0,0 3.6836,5.9935 8.4609,7.6405 4.7776,1.6495 8.84,-1.6733 8.84,-1.6733 z"
         style="fill:#d7b369;fill-rule:evenodd"
         id="path1006" />
      <path
         d="m 820.3401,174.5505 c 0.436,4.8069 4.9187,7.0454 4.9187,7.0454 0,0 4.0082,-3.0067 3.5732,-7.8136 -0.4345,-4.8083 -5.1489,-9.594 -5.1489,-9.594 0,0 -3.7775,5.5553 -3.343,10.3622 z"
         style="fill:#d7b369;fill-rule:evenodd"
         id="path1008" />
      <path
         d="m 831.9124,184.9948 c -0.546,5.4519 3.9725,8.91 3.9725,8.91 0,0 5.1136,-2.4927 5.6586,-7.9459 0.5463,-5.4529 -3.6827,-11.7992 -3.6827,-11.7992 0,0 -5.403,5.3832 -5.9484,10.8351 z"
         style="fill:#d7b369;fill-rule:evenodd"
         id="path1010" />
      <path
         d="m 851.0708,227.3893 c 0,0 6.9744,-1.779 9.0477,-8.3946 2.0712,-6.6169 -1.5438,-15.5636 -1.5438,-15.5636 0,0 -8.0714,5.2856 -10.1437,11.9025 -2.0722,6.6156 2.6398,12.0557 2.6398,12.0557 z"
         style="fill:#d7b369;fill-rule:evenodd"
         id="path1012" />
      <path
         d="m 844.4801,208.5124 c 0,0 5.7333,-1.4643 7.4373,-6.9031 1.703,-5.4377 -1.2694,-12.7942 -1.2694,-12.7942 0,0 -6.6358,4.3461 -8.3387,9.7862 -1.704,5.4377 2.1708,9.9111 2.1708,9.9111 z"
         style="fill:#d7b369;fill-rule:evenodd"
         id="path1014" />
      <path
         d="m 735.4148,218.5921 c 0,0 44.6212,-5.6979 77.8254,46.9413 0,0 -25.5245,-58.3285 -77.8254,-46.9413 z"
         style="fill:#d7b369;fill-rule:evenodd"
         id="path1016" />
      <path
         d="m 782.2826,237.255 c -5.6989,0.2662 -11.5938,5.5848 -11.5938,5.5848 0,0 6.3651,4.7477 12.0631,4.4818 5.6976,-0.2659 8.5727,-5.4448 8.5727,-5.4448 0,0 -3.3444,-4.8864 -9.042,-4.6218 z"
         style="fill:#d7b369;fill-rule:evenodd"
         id="path1018" />
      <path
         d="m 772.0558,229.401 c -4.9638,0.2302 -10.0962,4.8628 -10.0962,4.8628 0,0 5.5421,4.1337 10.5035,3.9034 4.9624,-0.2329 7.4659,-4.7419 7.4659,-4.7419 0,0 -2.9118,-4.2573 -7.8732,-4.0243 z"
         style="fill:#d7b369;fill-rule:evenodd"
         id="path1020" />
      <path
         d="m 765.7085,226.4084 c 0,0 -3.4534,-3.1602 -7.7914,-1.9298 -4.338,1.2313 -7.9173,6.3863 -7.9173,6.3863 0,0 5.7538,2.5068 10.0905,1.2768 4.339,-1.2317 5.6182,-5.7333 5.6182,-5.7333 z"
         style="fill:#d7b369;fill-rule:evenodd"
         id="path1022" />
      <path
         d="m 751.1733,221.7533 c 0,0 -3.6719,-2.2695 -7.3925,-0.411 -3.7193,1.8608 -6.0777,7.1454 -6.0777,7.1454 0,0 5.6431,1.2859 9.3624,-0.5749 3.7193,-1.8585 4.1078,-6.1595 4.1078,-6.1595 z"
         style="fill:#d7b369;fill-rule:evenodd"
         id="path1024" />
      <path
         d="m 745.5908,215.6161 c 0,0 0.3904,-3.8537 -2.5698,-6.1252 -2.9595,-2.2705 -8.1499,-2.1008 -8.1499,-2.1008 0,0 1.1779,5.059 4.1371,7.3295 2.9619,2.2705 6.5826,0.8965 6.5826,0.8965 z"
         style="fill:#d7b369;fill-rule:evenodd"
         id="path1026" />
      <path
         d="m 738.8789,218.2986 c 0,0 -3.04,-3.0636 -7.0932,-2.1207 -4.0492,0.9415 -7.574,5.5313 -7.574,5.5313 0,0 5.1897,2.5664 9.2389,1.6235 4.0519,-0.9418 5.4283,-5.0341 5.4283,-5.0341 z"
         style="fill:#d7b369;fill-rule:evenodd"
         id="path1028" />
      <path
         d="m 751.0901,212.8918 c 2.4072,3.1602 6.5112,2.7576 6.5112,2.7576 0,0 1.4771,-3.8489 -0.93,-7.0088 -2.4058,-3.1598 -7.784,-4.4319 -7.784,-4.4319 0,0 -0.203,5.5246 2.2028,8.6831 z"
         style="fill:#d7b369;fill-rule:evenodd"
         id="path1030" />
      <path
         d="m 763.7241,215.1068 c 2.0046,4.0387 6.6668,4.4719 6.6668,4.4719 0,0 2.4724,-3.9744 0.4665,-8.0132 -2.0056,-4.0387 -7.7281,-6.6109 -7.7281,-6.6109 0,0 -1.4108,6.1144 0.5948,10.1522 z"
         style="fill:#d7b369;fill-rule:evenodd"
         id="path1032" />
      <path
         d="m 795.6222,236.2684 c 0,0 4.0825,-4.2906 2.6327,-9.8078 -1.4525,-5.5172 -7.8853,-10.17 -7.8853,-10.17 0,0 -3.312,7.2141 -1.8609,12.7313 1.4502,5.5172 7.1135,7.2465 7.1135,7.2465 z"
         style="fill:#d7b369;fill-rule:evenodd"
         id="path1034" />
      <path
         d="m 782.7707,225.9974 c 0,0 3.3548,-3.5294 2.1625,-8.0634 -1.1923,-4.5363 -6.4816,-8.3613 -6.4816,-8.3613 0,0 -2.723,5.9319 -1.5293,10.4682 1.1923,4.535 5.8484,5.9565 5.8484,5.9565 z"
         style="fill:#d7b369;fill-rule:evenodd"
         id="path1036" />
      <g
         id="Layer1022"
         transform="translate(0,-6)">
        <g
           id="Layer1023">
          <path
             d="m 611.6664,320.81 c 0,-0.3161 0.0543,-0.3161 0.158,-0.448 l 0.1561,-0.1873 c 0.0514,-0.0624 0.2618,-0.0624 0.3141,-0.0624 0.1571,0 0.4692,0.3816 0.576,0.5064 l 9.6235,13.9239 c 0.732,1.0824 0.9918,1.7167 0.9918,2.2272 0,1.0159 -0.8881,0.9494 -1.6201,1.0783 -0.3654,0.0655 -1.3592,0.2537 -1.3592,1.5264 0,1.5918 1.464,1.5294 1.9875,1.5294 2.7195,0 5.281,-0.3816 7.8968,-0.3816 2.6672,0 5.3867,0.3816 8.1062,0.3816 0.9414,0 2.3531,-0.0654 2.3531,-1.5918 0,-1.3985 -1.0452,-1.464 -1.4117,-1.464 -1.8828,-0.1903 -2.2473,-0.3786 -4.6023,-3.7495 l -14.382,-20.4101 c -0.2094,-0.3192 -0.4198,-0.5719 -0.4198,-1.0199 0,-0.3152 0.2104,-0.6968 0.3665,-0.8881 l 6.3281,-7.5031 c 1.3079,-1.5918 3.1394,-4.4493 8.0025,-4.7695 1.6754,-0.1238 3.086,0.0624 3.086,-1.6502 0,-1.4016 -0.9938,-1.464 -1.8305,-1.464 -2.4054,0 -4.7584,0.3816 -7.1638,0.3816 -2.0942,0 -4.2378,-0.3816 -6.3291,-0.3816 -1.5697,0 -1.9875,0.5719 -1.9875,1.4016 0,1.5223 1.1498,1.5888 2.2493,1.6502 1.0985,0.0624 1.9342,0 1.9342,1.2072 0,1.0824 -1.1498,2.6712 -4.3939,6.6121 l -7.8978,9.4765 c -0.2598,0.3192 -0.732,0.3192 -0.732,-0.3816 v -11.1278 c 0,-3.9408 0.89,-5.9767 3.7676,-6.168 0.5739,-0.0624 1.5154,-0.0624 1.5154,-1.2062 0,-1.464 -1.2022,-1.464 -1.7258,-1.464 -2.8252,0 -5.6485,0.3816 -8.4727,0.3816 -2.8253,0 -5.6485,-0.3816 -8.4737,-0.3816 -0.5226,0 -1.7258,0 -1.7258,1.464 0,1.1438 0.9414,1.1438 1.5173,1.2062 2.8756,0.1913 3.7657,2.2272 3.7657,6.168 v 26.8308 c 0,3.9439 -0.8901,5.9767 -3.7657,6.167 -0.5759,0.0655 -1.5173,0.0655 -1.5173,1.2102 0,1.464 1.2032,1.464 1.7258,1.464 2.8252,0 5.6484,-0.3816 8.4737,-0.3816 2.8242,0 5.6475,0.3816 8.4727,0.3816 0.5236,0 1.7258,0 1.7258,-1.464 0,-1.1447 -0.9415,-1.1447 -1.464,-1.2102 -3.087,-0.1903 -3.819,-2.5423 -3.819,-6.167 z"
             style="fill:#ffffff;fill-rule:evenodd"
             id="path1038" />
        </g>
        <g
           id="Layer1024">
          <path
             d="m 666.951,315.5341 c 0.0533,-2.4175 0.1037,-8.1384 -10.3556,-8.1384 -3.5552,0 -7.3229,0.8256 -10.9325,3.8784 -2.4053,2.0328 -4.0254,4.7664 -4.0254,6.6734 0,1.2083 0.9928,1.6523 1.8305,1.6523 2.0399,0 6.0663,-1.0794 7.0087,-3.6841 l 0.8367,-2.2896 c 0.5226,-1.4015 1.5164,-3.5623 4.1322,-3.5623 0.4692,0 2.8756,0.0655 2.8232,4.0063 l -0.1047,5.4038 c -0.0514,2.3521 -0.2094,2.5464 -1.0451,2.9904 -10.3556,5.2759 -15.2207,7.5615 -15.2207,13.4134 0,3.6881 2.355,6.168 5.9626,6.168 4.3406,0 8.5784,-4.3265 9.2581,-5.0232 0.2618,-0.2527 0.4702,-0.5095 0.7833,-0.8256 0.0524,-0.0655 0.1571,-0.1279 0.2104,-0.1279 0.0514,0 0.1038,0.2527 0.3142,0.8256 1.0451,3.2431 2.4577,4.7695 5.1249,4.7695 3.0327,0 5.1249,-1.6553 6.6946,-3.3065 1.2022,-1.2687 1.7258,-2.0983 1.7258,-3.0518 0,-0.7632 -0.4702,-0.8881 -0.9938,-0.8881 -0.2608,0 -0.5226,0.1873 -1.1498,0.6968 -0.576,0.448 -1.0995,0.8296 -1.7792,0.8296 -0.6806,0 -1.5163,-0.5759 -1.4649,-3.6257 z m -8.942,13.4798 v 0 c -0.0543,3.9399 -1.2042,6.7359 -4.2378,6.7359 -1.5174,0 -2.7196,-1.1448 -2.7196,-3.3025 0,-3.7536 3.1898,-5.2789 5.4915,-6.615 0.6282,-0.3816 0.89,-0.4471 1.0461,-0.4471 0.2618,0 0.4702,0.3192 0.4702,0.8911 z"
             style="fill:#ffffff;fill-rule:evenodd"
             id="path1041" />
        </g>
        <g
           id="Layer1025">
          <path
             d="m 708.4849,300.3335 c -0.4169,-2.7326 -0.3655,-2.8574 -1.8295,-3.3679 -2.2493,-0.7632 -4.9165,-1.5224 -8.7858,-1.5224 -15.4825,0 -23.4327,11.887 -23.4327,23.4588 0,9.535 5.282,22.9524 22.4369,22.9524 1.9875,0 4.8651,-0.2527 8.4223,-1.7791 4.3396,-1.8456 4.1312,-2.9864 4.3396,-5.5951 l 0.2094,-2.6088 c 0.1581,-1.8456 0.3162,-3.5582 -1.2022,-3.5582 -0.4178,0 -0.6272,0.1238 -0.889,0.5064 -0.3142,0.447 -0.5226,1.0189 -0.9424,1.9734 -0.9394,1.8416 -1.5154,3.0488 -2.1436,4.0063 -2.195,3.368 -5.1249,4.5128 -7.478,4.5128 -7.0087,0 -12.7116,-8.2039 -12.7116,-20.7917 0,-9.9165 4.393,-20.5389 13.2332,-20.5389 3.7133,0 4.9175,1.908 7.3742,5.4673 1.1498,1.7207 1.7258,3.2471 2.8776,3.2471 1.5677,0 1.1498,-2.1648 0.9414,-3.4999 z"
             style="fill:#ffffff;fill-rule:evenodd"
             id="path1044" />
        </g>
        <g
           id="Layer1026">
          <path
             d="m 738.7218,321.1916 c 1.2556,0 2.5635,-0.1913 2.5635,-2.6712 0,-5.5327 -4.8128,-11.1247 -12.5515,-11.1247 -10.723,0 -15.6909,9.1543 -15.6909,17.1015 0,8.0125 5.282,17.5485 15.1673,17.5485 4.8108,0 9.3104,-2.352 11.9776,-5.6575 0.3121,-0.3816 0.8357,-1.1448 0.8357,-2.0369 0,-0.8246 -0.5749,-1.0784 -0.888,-1.0784 -0.575,0 -1.2032,0.7008 -2.0933,1.46 -1.5697,1.2737 -3.817,2.2896 -5.9093,2.2896 -5.44,0 -9.7816,-5.72 -9.7816,-13.7326 0,-2.1647 0.5246,-2.0983 1.3079,-2.0983 z m -13.8584,-2.4799 v 0 c -1.7781,0 -1.9362,-0.5064 -1.9362,-1.2736 0,-1.904 0.8377,-4.0688 1.8305,-5.276 1.0995,-1.3975 2.7729,-2.2261 4.55,-2.2261 2.7215,0 3.819,2.4174 3.819,4.5781 0,3.5593 -2.5111,4.1976 -6.016,4.1976 z"
             style="fill:#ffffff;fill-rule:evenodd"
             id="path1047" />
        </g>
        <g
           id="Layer1027">
          <path
             d="m 779.0032,300.3335 c -0.4178,-2.7326 -0.3645,-2.8574 -1.8305,-3.3679 -2.2493,-0.7632 -4.9164,-1.5224 -8.7858,-1.5224 -15.4825,0 -23.4326,11.887 -23.4326,23.4588 0,9.535 5.284,22.9524 22.4388,22.9524 1.9876,0 4.8632,-0.2527 8.4204,-1.7791 4.3416,-1.8456 4.1311,-2.9864 4.3416,-5.5951 l 0.2074,-2.6088 c 0.158,-1.8456 0.3161,-3.5582 -1.2022,-3.5582 -0.4179,0 -0.6273,0.1238 -0.8891,0.5064 -0.3141,0.447 -0.5225,1.0189 -0.9404,1.9734 -0.9414,1.8416 -1.5173,3.0488 -2.1446,4.0063 -2.1959,3.368 -5.1259,4.5128 -7.4789,4.5128 -7.0088,0 -12.7116,-8.2039 -12.7116,-20.7917 0,-9.9165 4.3949,-20.5389 13.2331,-20.5389 3.7133,0 4.9175,1.908 7.3763,5.4673 1.1498,1.7207 1.7257,3.2471 2.8756,3.2471 1.5696,0 1.1498,-2.1648 0.9414,-3.4999 z"
             style="fill:#ffffff;fill-rule:evenodd"
             id="path1050" />
        </g>
      </g>
      <g
         id="Layer1028"
         transform="translate(0,-6)">
        <path
           d="m 813.8709,270.5996 c 0,-7.9885 6.1449,-14.8633 14.1333,-14.8633 8.0025,0 14.1323,6.9161 14.1323,14.8633 0,7.9471 -6.1298,14.8642 -14.1323,14.8642 -7.9884,0 -14.1333,-6.8788 -14.1333,-14.8642 z"
           style="fill:#d7b369;fill-rule:evenodd"
           id="path1054" />
      </g>
      <g
         id="Layer1029"
         transform="translate(0,-6)">
        <g
           id="Layer1030">
          <path
             d="m 828.0042,278.5014 c -4.0627,0 -7.3954,-3.5482 -7.3954,-7.9018 0,-4.3567 3.3327,-7.9049 7.3954,-7.9049 4.0637,0 7.3954,3.5764 7.3954,7.9049 0,4.3295 -3.3317,7.9018 -7.3954,7.9018 z"
             style="fill:#d7b369;fill-rule:evenodd"
             id="path1057" />
        </g>
        <g
           id="Layer1031">
          <path
             d="m 828.0042,280.2745 c 5.1501,0.0272 9.3638,-4.3779 9.3638,-9.6749 0,-5.2961 -4.2137,-9.678 -9.3638,-9.678 -5.1491,0 -9.3648,4.3326 -9.3648,9.678 0,5.3454 4.2157,9.6497 9.3648,9.6749 z m 0,-1.7731 v 0 c -4.0627,0 -7.3954,-3.5482 -7.3954,-7.9018 0,-4.3567 3.3327,-7.9049 7.3954,-7.9049 4.0637,0 7.3954,3.5764 7.3954,7.9049 0,4.3295 -3.3317,7.9018 -7.3954,7.9018 z m -3.5079,-4.849 v 0 c 0,1.1961 -0.6061,1.3804 -0.9857,1.3804 -0.1007,0 -0.4038,-0.0242 -0.4038,0.2597 0,0.3162 0.3031,0.3404 0.4541,0.3404 0.732,0 1.4902,-0.0766 2.2473,-0.0766 0.7572,0 1.4892,0.0766 2.2202,0.0766 0.153,0 0.4551,-0.0242 0.4551,-0.3404 0,-0.2839 -0.3021,-0.2597 -0.4048,-0.2597 -0.3776,0 -0.9827,-0.1843 -0.9827,-1.3804 v -2.4527 c 0,-0.1319 0.1007,-0.3394 0.2265,-0.3394 h 0.1259 c 0.4038,0 0.5306,0.0796 1.0854,1.2002 l 1.5898,3.232 c 0.0765,0.1843 0.1007,0.3404 0.4289,0.3404 0.3796,0 0.4803,-0.0514 1.4147,-0.0514 0.4047,0 0.7823,0.0514 1.1871,0.0514 0.1248,0 0.3775,0.0281 0.4279,-0.3122 0,-0.0282 0,-0.0765 0,-0.1037 -0.0262,-0.0795 -0.1007,-0.156 -0.3283,-0.1842 -0.303,-0.0242 -0.5044,-0.0524 -0.9585,-0.9646 l -1.1861,-2.348 c -0.304,-0.5961 -0.7078,-1.172 -1.5405,-1.2767 v -0.0524 c 1.3895,0 2.6259,-0.7833 2.6259,-2.2714 0,-0.9364 -0.4802,-2.4769 -2.8031,-2.4769 -0.4279,0 -0.8316,0 -1.2616,0.0282 -0.7823,0.0242 -1.5384,0.0523 -2.3218,0.0523 -0.7571,0 -1.5153,-0.0805 -2.2473,-0.0805 -0.151,0 -0.4541,0.0282 -0.4541,0.3403 0,0.1561 0.1007,0.2356 0.4038,0.2598 0.732,0.1077 0.9857,0.5487 0.9857,1.3844 z m 2.5997,-6.5215 v 0 c 0,-0.2597 0.0503,-0.7803 0.8075,-0.7803 0.9092,0 1.6412,0.7803 1.6412,1.9523 0,1.0965 -0.8347,1.9574 -1.8436,1.9574 h -0.2013 c -0.43,0 -0.4038,-0.2326 -0.4038,-0.5488 z"
             style="fill:#ffffff;fill-rule:evenodd"
             id="path1060" />
        </g>
      </g>
    </g>
  </g>
</svg>
