<?xml version="1.0" encoding="UTF-8" standalone="no"?>
<svg
   xmlns:dc="http://purl.org/dc/elements/1.1/"
   xmlns:cc="http://creativecommons.org/ns#"
   xmlns:rdf="http://www.w3.org/1999/02/22-rdf-syntax-ns#"
   xmlns:svg="http://www.w3.org/2000/svg"
   xmlns="http://www.w3.org/2000/svg"
   xmlns:sodipodi="http://sodipodi.sourceforge.net/DTD/sodipodi-0.dtd"
   xmlns:inkscape="http://www.inkscape.org/namespaces/inkscape"
   width="65.721764mm"
   height="60.529362mm"
   viewBox="0 0 65.721763 60.529361"
   version="1.1"
   id="svg10817"
   inkscape:version="1.0.2 (e86c870879, 2021-01-15, custom)"
   sodipodi:docname="logo_fot.svg">
  <defs
     id="defs10811" />
  <sodipodi:namedview
     id="base"
     pagecolor="#ffffff"
     bordercolor="#666666"
     borderopacity="1.0"
     inkscape:pageopacity="0.0"
     inkscape:pageshadow="2"
     inkscape:zoom="0.9899495"
     inkscape:cx="174.1641"
     inkscape:cy="82.966456"
     inkscape:document-units="mm"
     inkscape:current-layer="layer1"
     inkscape:document-rotation="0"
     showgrid="false"
     fit-margin-top="0"
     fit-margin-left="0"
     fit-margin-right="0"
     fit-margin-bottom="0"
     inkscape:window-width="1710"
     inkscape:window-height="1030"
     inkscape:window-x="289"
     inkscape:window-y="96"
     inkscape:window-maximized="0" />
  <metadata
     id="metadata10814">
    <rdf:RDF>
      <cc:Work
         rdf:about="">
        <dc:format>image/svg+xml</dc:format>
        <dc:type
           rdf:resource="http://purl.org/dc/dcmitype/StillImage" />
        <dc:title></dc:title>
      </cc:Work>
    </rdf:RDF>
  </metadata>
  <g
     inkscape:label="Слой 1"
     inkscape:groupmode="layer"
     id="layer1"
     transform="translate(-121.31179,-44.833953)">
    <rect
       style="fill:#303030;fill-opacity:0.980392;stroke:#ffffff;stroke-width:0.7"
       id="rect77"
       width="184.64136"
       height="99.596718"
       x="69.492622"
       y="31.46302"
       ry="1.6602604" />
    <g
       id="Layer1000-5"
       transform="matrix(0.16571351,0,0,0.16571351,113.52921,17.469491)">
      <path
         d="m 233.6567,254.837 c -54.9696,0 -98.7759,42.009 -98.7759,92.9237 0,50.8957 43.8063,92.9061 98.7759,92.9061 54.9695,0 98.7693,-42.0104 98.7693,-92.9061 0,-50.9147 -43.7998,-92.9237 -98.7693,-92.9237 z m -104.4803,92.9237 v 0 c 0,-54.5297 46.7715,-98.7496 104.4803,-98.7496 57.7087,0 104.4763,44.2199 104.4763,98.7496 0,54.5369 -46.7676,98.7437 -104.4763,98.7437 -57.7088,0 -104.4803,-44.2068 -104.4803,-98.7437 z m 104.4803,81.2571 v 0 c -49.4801,0 -87.3365,-37.5959 -87.3365,-81.2571 0,-43.665 37.8564,-81.2597 87.3365,-81.2597 49.478,0 87.3364,37.5947 87.3364,81.2597 0,43.6612 -37.8584,81.2571 -87.3364,81.2571 z"
         style="fill:#ffffff;fill-opacity:1;fill-rule:evenodd"
         id="path839-4" />
      <path
         d="m 233.6567,512.9776 c 88.6975,0 169.6176,-69.1018 169.6176,-165.2169 0,-96.1347 -80.9201,-165.2378 -169.6176,-165.2378 -88.7146,0 -169.6203,69.1031 -169.6203,165.2378 0,96.1151 80.9057,165.2169 169.6203,165.2169 z m 0,6.9945 v 0 c -91.9364,0 -176.4788,-71.6517 -176.4788,-172.2114 0,-100.5643 84.5424,-172.2435 176.4788,-172.2435 91.9148,0 176.4702,71.6792 176.4702,172.2435 0,100.5597 -84.5554,172.2114 -176.4702,172.2114 z"
         style="fill:#ffffff;fill-opacity:1;fill-rule:evenodd"
         id="path841-8" />
      <path
         d="m 50.8949,347.7607 c 0,104.5807 87.8648,178.638 182.7618,178.638 94.9022,0 182.7578,-74.0573 182.7578,-178.638 0,-104.6023 -87.8556,-178.651 -182.7578,-178.651 -94.897,0 -182.7618,74.0487 -182.7618,178.651 z m -3.4348,0 v 0 c 0,-106.8105 89.6864,-182.1335 186.1966,-182.1335 96.4893,0 186.1861,75.323 186.1861,182.1335 0,106.7948 -89.6968,182.1395 -186.1861,182.1395 -96.5102,0 -186.1966,-75.3447 -186.1966,-182.1395 z"
         style="fill:#ffffff;fill-opacity:1;fill-rule:evenodd;stroke:#ffffff;stroke-width:0.9921;stroke-linecap:butt;stroke-linejoin:miter;stroke-dasharray:none;stroke-opacity:1"
         id="path843-3" />
      <path
         d="m 114.6119,447.8328 -5.8565,-9.0578 5.5561,-11.9075 -13.2273,0.0431 -2.6945,-4.1674 17.9866,-0.1413 9.0778,-19.1364 5.7465,8.8877 -4.7285,10.0758 11.1349,-0.1675 2.7495,4.2525 -15.9554,0.2473 z m 25.4878,22.7626 -7.5521,-6.6239 9.1877,-26.768 -23.2775,14.4102 -3.607,-3.1637 29.9909,-18.4341 7.0636,6.1954 z m 20.0809,12.2652 -18.3684,-10.6954 15.8669,-30.0202 18.0259,10.4959 -2.1378,4.0446 -10.0191,-5.8337 -4.6318,8.7633 9.5054,5.5347 -2.1378,4.0446 -9.5054,-5.5347 -4.8219,9.1229 10.3618,6.0333 z m 31.4539,3.0144 c -1.2952,3.1914 -3.4847,5.0894 -6.5652,5.6859 -2.6211,0.5133 -5.4616,0.0812 -8.5248,-1.2883 l -13.3792,-5.9816 12.818,-31.5843 20.0462,8.9624 -1.727,4.2554 -11.6223,-5.1962 -3.5115,8.6525 5.4057,2.4169 c 2.9432,1.3158 5.1007,3.0811 6.4695,5.3037 1.6773,2.6864 1.8731,5.6135 0.5906,8.7736 z m -8.328,-4.0027 c 0.6812,-1.6785 0.6106,-3.209 -0.2153,-4.5837 -0.6937,-1.176 -1.8229,-2.1092 -3.3846,-2.8074 l -2.2073,-0.9868 -4.2407,10.4493 2.2524,1.007 c 1.5917,0.7116 3.0557,0.8634 4.3954,0.4476 1.4949,-0.4489 2.6294,-1.6268 3.4001,-3.526 z m 43.5196,3.2065 c -0.6716,5.1944 -3.0273,9.1463 -7.0671,11.8555 -3.7136,2.4791 -7.9316,3.3824 -12.6542,2.7097 -4.6578,-0.6635 -8.4499,-2.673 -11.3761,-6.0288 -3.2426,-3.712 -4.5236,-8.1991 -3.8432,-13.4614 0.6891,-5.3302 2.965,-9.4922 6.8274,-12.4861 3.8626,-2.9939 8.1874,-4.1499 12.9747,-3.468 4.8195,0.6865 8.6823,2.9137 11.5881,6.6814 3.0781,3.9652 4.2616,8.6977 3.5504,14.1977 z m -9.7524,-1.3892 c 0.6277,-4.8549 0.3019,-8.7046 -0.9774,-11.5492 -1.0497,-2.3277 -2.7066,-3.6528 -4.9709,-3.9753 -2.9434,-0.4193 -5.2882,1.0273 -7.0342,4.3399 -1.1806,2.2522 -2.0146,5.2624 -2.5018,9.031 -0.417,3.2253 -0.2109,6.0898 0.6183,8.5937 1.065,3.2289 2.9721,5.0392 5.7216,5.4308 2.6847,0.3824 4.8715,-0.862 6.5605,-3.7333 1.3056,-2.1997 2.1669,-4.9123 2.5839,-8.1376 z m 38.5746,7.7305 c 0.1409,3.4573 -1.2867,6.1104 -4.2825,7.9596 -2.454,1.5162 -5.5726,2.3591 -9.3557,2.5289 -3.2287,0.145 -5.9395,-0.2306 -8.1324,-1.1267 -2.5246,-1.0183 -4.6226,-2.793 -6.294,-5.3243 l 3.8089,-2.743 c 0.946,1.5693 2.1803,2.7913 3.7025,3.6661 1.5222,0.8747 3.2455,1.2688 5.1696,1.1825 1.9243,-0.0864 3.3929,-0.7267 4.4061,-1.921 1.0132,-1.1942 1.4857,-2.6301 1.4174,-4.3074 -0.0768,-1.8827 -0.7235,-3.3196 -1.9401,-4.311 -1.2166,-0.9913 -2.7381,-1.446 -4.5644,-1.364 l -2.5927,0.1164 -0.1674,-4.1076 2.7884,-0.1252 c 1.5329,-0.0688 2.7391,-0.5345 3.6187,-1.397 1.0373,-1.0068 1.5182,-2.4344 1.4428,-4.2827 -0.0725,-1.7801 -0.6331,-3.1095 -1.6817,-3.9883 -1.0487,-0.8789 -2.4536,-1.2788 -4.2147,-1.1997 -1.3372,0.06 -2.6867,0.6178 -4.0485,1.6735 -1.1406,0.8742 -2.2211,2.0201 -3.2416,3.4376 l -3.2865,-2.4758 c 3.3111,-4.5382 7.4615,-6.9193 12.4513,-7.1432 3.2613,-0.1465 6.179,0.4942 8.753,1.9218 2.9084,1.6184 4.4191,3.814 4.5321,6.5866 0.099,2.4303 -0.5064,4.4123 -1.8161,5.9456 -1.0913,1.2835 -2.7176,2.2653 -4.8789,2.9453 2.3323,0.3068 4.295,1.1704 5.8886,2.5906 1.5934,1.4202 2.4327,3.1743 2.5178,5.2624 z m 34.142,0.6776 -9.5181,2.627 -5.935,-8.9367 -10.8915,3.006 -0.9315,10.8319 -4.546,1.2547 3.0469,-36.3382 8.9026,-2.4571 z m -17.9197,-10.0926 -7.071,-10.6426 -0.9793,12.8644 z m 41.8886,-11.025 c 1.3447,3.056 0.8393,5.9523 -1.5197,8.6809 -1.6148,1.8866 -3.8612,3.5228 -6.7358,4.9163 l -13.2912,6.443 -13.7144,-31.1666 12.8911,-6.2491 c 2.9635,-1.4366 5.7129,-2.0524 8.2482,-1.8473 3.1326,0.2552 5.3353,1.8292 6.6083,4.7219 0.8622,1.9595 0.9379,3.8476 0.227,5.664 -0.6151,1.5436 -1.7843,3.0539 -3.5076,4.5308 2.3732,-0.7353 4.5414,-0.7108 6.508,0.0813 1.9666,0.7922 3.393,2.1952 4.2861,4.2248 z m -15.8978,-10.2667 c -0.5749,-1.3064 -1.4877,-2.1754 -2.7383,-2.6069 -1.2506,-0.4316 -2.6612,-0.2667 -4.2319,0.4947 l -2.3559,1.142 4.106,9.3314 2.5338,-1.2283 c 1.4521,-0.7039 2.4266,-1.5537 2.9233,-2.5493 0.6358,-1.2517 0.5568,-2.7795 -0.237,-4.5836 z m 6.86,13.6289 c -0.7561,-1.7185 -1.8781,-2.7974 -3.3624,-3.2289 -1.4877,-0.4394 -3.0597,-0.2529 -4.7192,0.5516 l -2.356,1.1421 4.5167,10.2645 2.5783,-1.2498 c 1.778,-0.862 2.9456,-1.947 3.4993,-3.2627 0.5571,-1.3078 0.5038,-2.716 -0.1567,-4.2168 z m 33.1477,-32.2744 c 3.0823,4.1246 4.1419,8.6516 3.179,13.5809 -0.8929,4.5233 -3.2143,8.3285 -6.9643,11.4155 -3.6987,3.0448 -7.7141,4.4999 -12.0463,4.3651 -4.7961,-0.1448 -8.7553,-2.3064 -11.8779,-6.4851 -3.1628,-4.2325 -4.4218,-8.8457 -3.777,-13.8397 0.6449,-4.9941 2.868,-9.0558 6.6694,-12.1851 3.827,-3.1506 8.0404,-4.5073 12.6401,-4.0701 4.8545,0.445 8.9135,2.8511 12.177,7.2185 z m -7.744,6.375 c -2.8808,-3.8551 -5.7389,-6.2919 -8.5744,-7.3105 -2.3222,-0.8315 -4.3822,-0.5072 -6.1802,0.9729 -2.3373,1.9242 -2.9822,4.6975 -1.9347,8.3201 0.7168,2.458 2.1931,5.1832 4.4293,8.1756 1.9137,2.5611 4.0152,4.4017 6.3042,5.5217 2.9488,1.4479 5.5147,1.2732 7.698,-0.5241 2.1318,-1.755 2.8049,-4.2685 2.0192,-7.5406 -0.5938,-2.5157 -1.8476,-5.054 -3.7614,-7.6151 z m 48.2267,-17.8308 -5.2758,7.0215 -7.2664,-6.0148 -10.8852,14.4868 7.2664,6.0148 -5.2758,7.0215 -10.7267,-8.879 1.6677,-2.2194 -15.9458,-26.7477 5.7004,-7.5865 28.6198,9.88 1.3948,-1.8562 z m -18.2158,1.0882 -21.2925,-7.349 11.8929,19.8586 z"
         style="fill:#ffffff;fill-opacity:1;fill-rule:evenodd"
         id="path845-16" />
      <g
         id="Layer1001-7">
        <path
           d="m 353.7158,292.0883 c 3.2135,-5.2836 8.7875,-8.9438 15.4625,-8.9438 7.9551,0 14.3534,5.2162 17.0482,12.1744 -0.542,-7.414 -1.6072,-14.783 -3.2881,-21.9794 -4.3955,1.3366 -9.4544,0.9222 -13.3771,-1.3537 -5.0994,-2.9583 -9.2864,-9.45 -11.334,-14.8666 -0.4917,-1.2971 -0.3883,-2.6122 0.2993,-3.8176 0.4216,-0.7388 0.9906,-1.3105 1.6809,-1.6962 -2.3568,-2.7514 -4.2328,-6.1222 -5.3771,-9.1443 -0.2319,-0.6121 -0.3317,-1.2278 -0.3002,-1.8346 -3.6809,-1.9478 -7.0391,-5.3986 -9.1974,-8.6247 -0.746,-1.1066 -0.9564,-2.3506 -0.622,-3.6288 -3.6692,-1.1578 -7.3295,-3.698 -9.8355,-6.2724 -0.9546,-0.9816 -1.3843,-2.2085 -1.2513,-3.5712 0.1331,-1.3637 0.7919,-2.4837 1.9191,-3.2612 0.0746,-0.0521 0.1511,-0.1034 0.2275,-0.1546 -0.0693,-0.0234 -0.1385,-0.0467 -0.2068,-0.071 -4.2948,-1.5236 -8.4279,-5.8292 -10.7101,-9.6908 -0.6994,-1.1848 -0.8261,-2.4845 -0.3686,-3.7816 0.4575,-1.298 1.3726,-2.2301 2.6508,-2.7101 4.2185,-1.5938 9.974,-2.374 14.3012,-0.8414 0.6337,0.2247 1.2476,0.5043 1.8373,0.8315 0.205,-1.8409 0.6059,-3.6333 1.1362,-5.1884 0.4539,-1.3294 1.3906,-2.2876 2.7092,-2.7703 1.3196,-0.4827 2.6526,-0.356 3.8571,0.3658 3.5173,2.1097 7.289,5.7573 8.7785,9.663 0.4413,-0.862 0.9168,-1.6764 1.4094,-2.4234 0.7812,-1.1865 1.9461,-1.8805 3.3609,-2.0045 1.4149,-0.124 2.6841,0.3587 3.6486,1.3798 2.8171,2.9582 5.5164,7.3474 6.1852,11.5191 0.4341,-0.515 0.8764,-1.0031 1.3195,-1.458 0.9825,-1.0076 2.2428,-1.4696 3.6432,-1.3366 1.4014,0.1339 2.5519,0.8252 3.3268,2 2.6337,3.9937 4.8225,10.0387 4.3514,14.8648 -0.007,0.0782 -0.0161,0.1555 -0.0251,0.2337 0.6624,-0.5393 1.3312,-1.0373 1.9928,-1.4867 1.164,-0.8 2.4872,-1.0005 3.8391,-0.5906 1.3519,0.409 2.3461,1.3205 2.8701,2.6319 1.3996,3.4985 2.3155,8.1403 2.0252,12.2742 0.9348,-0.373 1.9416,-0.4045 2.9564,-0.0881 1.351,0.4216 2.3398,1.3448 2.8486,2.6571 2.1294,5.4526 3.3501,13.0841 1.635,18.712 -1.5074,4.9421 -5.7087,9.2729 -10.6076,11.0805 1.8211,10.5502 2.569,22.9808 1.6431,33.7656 0.5025,-1.0472 1.0418,-2.0387 1.6009,-2.9484 0.3784,-0.6157 0.8602,-1.1074 1.4274,-1.4642 -0.7604,-4.4072 -0.0386,-9.6127 1.298,-13.5983 0.4477,-1.342 1.387,-2.3083 2.7155,-2.7946 0.0126,-0.005 0.0252,-0.009 0.0378,-0.0135 -1.4481,-3.9281 -1.6809,-8.8621 -1.1155,-12.7461 0.2022,-1.3897 0.9483,-2.5034 2.1564,-3.2198 1.209,-0.7155 2.5438,-0.8351 3.8517,-0.3479 0.1843,0.0683 0.3694,0.1393 0.5564,0.2131 -0.0962,-0.2526 -0.1834,-0.5079 -0.2625,-0.7659 -1.4094,-4.5978 -0.4647,-10.729 1.2657,-15.1893 0.5078,-1.3213 1.4912,-2.2418 2.8413,-2.6678 1.3501,-0.4252 2.6886,-0.2311 3.8607,0.5582 3.9443,2.6535 8.1591,7.1523 9.574,11.7672 0.2607,0.8503 0.4314,1.7366 0.5159,2.6382 1.7412,-1.0598 3.5902,-1.8984 5.3151,-2.4494 1.3358,-0.427 2.6607,-0.2454 3.8337,0.5249 1.1722,0.7695 1.8652,1.9137 2.0036,3.2944 0.4531,4.3749 -0.1833,10.0117 -2.5537,13.7475 -0.1501,0.2364 -0.3092,0.4674 -0.4755,0.693 1.3097,-0.2517 2.6023,-0.4009 3.8113,-0.4476 1.3869,-0.054 2.6031,0.4629 3.5272,1.4993 0.924,1.0364 1.2989,2.3029 1.0876,3.6737 -0.6957,4.5295 -2.8548,10.1241 -6.2912,13.2675 -0.009,0.008 -0.018,0.0162 -0.027,0.0243 1.0445,0.0476 2.0566,0.1483 3.0103,0.2966 1.3699,0.213 2.463,0.951 3.1722,2.1429 0.7101,1.1911 0.8377,2.5043 0.3748,3.7996 -1.6872,4.7677 -5.1631,10.4216 -9.5533,13.1102 -0.3523,0.2157 -0.7137,0.4144 -1.084,0.5959 1.289,0.3057 2.5177,0.6859 3.6359,1.1173 1.2836,0.4953 2.1888,1.4373 2.6347,2.7389 0.4449,1.3007 0.3056,2.5996 -0.3991,3.7681 -2.1493,3.583 -5.5884,7.5066 -9.4437,9.8374 1.1776,0.5025 2.0135,1.4049 2.4441,2.6328 0.4584,1.3052 0.3245,2.6139 -0.3847,3.7969 -3.129,5.227 -8.6823,11.1811 -14.5286,13.2647 -5.1578,1.8383 -11.4338,0.8135 -15.9507,-2.3289 -8.8189,9.5748 -20.7497,19.591 -31.699,25.5794 -0.409,0.2238 -0.8377,0.3775 -1.2728,0.4656 v 13.9057 c 0,3.7034 -3.3861,7.9668 -7.0688,8.6068 l -10.4144,1.8094 c -22.0154,3.8247 -44.3031,6.4531 -66.581,8.1511 -17.5362,1.3375 -35.2334,2.142 -52.8236,2.142 -17.0356,0 -34.1763,-0.765 -51.1625,-2.0234 -21.6522,-1.6045 -43.3197,-4.0809 -64.7301,-7.6962 l -10.4711,-1.7681 c -3.7079,-0.6256 -7.1056,-4.8836 -7.1056,-8.6095 v -80.7356 c 0,-3.9083 3.4912,-8.143 7.4085,-8.6562 l 10.9026,-1.4274 c 4.0656,-0.5322 8.1357,-1.0284 12.2094,-1.494 19.6846,-2.2481 39.487,-3.8049 59.2713,-4.8557 14.6832,-0.7803 29.4923,-1.3376 44.1989,-1.3376 17.1758,0 34.4163,0.56 51.5651,1.4886 21.3179,1.1541 42.6618,2.9222 63.852,5.5685 -3.6414,-5.2539 -7.6737,-10.2355 -12.1124,-14.7821 -2.5825,2.6895 -6.1834,4.5025 -9.8535,4.6787 -4.9978,0.24 -10.8873,-2.444 -14.8334,-5.4553 -1.093,-0.8314 -1.698,-1.9829 -1.7654,-3.3546 -0.026,-0.5393 0.0333,-1.0535 0.1771,-1.5353 -2.6049,-0.9169 -5.1083,-2.3182 -7.0481,-3.8211 -0.347,-0.2688 -0.6436,-0.5699 -0.889,-0.8998 -3.4122,0.169 -7.2117,-0.7074 -10.0396,-2.0171 -0.9375,-0.4351 -1.645,-1.1056 -2.0917,-1.9757 -3.0202,0.6669 -6.4656,0.524 -9.209,-0.1448 -1.334,-0.3254 -2.3515,-1.1406 -2.9618,-2.3703 -0.4216,-0.8512 -0.5672,-1.7366 -0.4351,-2.6175 -3.5793,0.417 -7.8122,-0.6661 -10.8935,-2.2481 -1.2126,-0.623 -2.009,-1.6414 -2.3218,-2.9681 -0.3128,-1.3277 -0.054,-2.5942 0.7541,-3.6926 2.2967,-3.1237 6.2167,-6.3983 10.0441,-7.3124 0.2571,-0.0612 0.516,-0.1133 0.7767,-0.1555 -0.4783,-1.1587 -0.845,-2.3281 -1.0823,-3.4257 -0.293,-1.3537 0.003,-2.6373 0.8584,-3.7258 0.8549,-1.0895 2.0315,-1.6809 3.3996,-1.7169 3.04,-0.0917 6.6598,0.5429 9.4526,2.098 -0.004,-0.3227 -9e-4,-0.6409 0.009,-0.9528 0.0342,-1.4158 0.6517,-2.6059 1.7807,-3.4598 1.1299,-0.8549 2.4566,-1.1218 3.7969,-0.7775 2.9069,0.7218 6.1573,2.2274 8.5249,4.3532 0.0144,-0.071 0.0306,-0.142 0.0459,-0.2121 0.3038,-1.3672 1.1254,-2.418 2.3775,-3.0436 1.2522,-0.6265 2.587,-0.6526 3.8625,-0.0755 3.254,1.4723 6.8773,4.2094 8.9672,7.3609 0.0648,-0.151 0.1304,-0.3002 0.1969,-0.4467 0.5816,-1.2791 1.6081,-2.1412 2.969,-2.4926 1.3609,-0.3506 2.6769,-0.0926 3.8041,0.746 2.2993,1.7097 4.6562,4.1664 6.284,6.8657 0.4719,-0.3686 1.0239,-0.6382 1.6468,-0.8018 1.3663,-0.3578 2.6903,-0.1007 3.8229,0.7425 3.9866,2.9681 8.1933,7.9065 9.4446,12.7946 1.0795,4.2176 0.0665,9.0212 -2.4495,12.6095 4.2472,4.8764 8.4791,10.6706 11.9668,16.5349 z m 13.9731,30.1008 v 43.7108 c 8.2553,-6.6616 15.8553,-14.0657 22.4531,-22.2078 -4.0521,-2.9429 -6.9969,-7.6692 -7.5892,-12.5744 -0.7461,-6.1843 1.9479,-13.9075 5.1614,-19.1291 0.2804,-0.4557 0.6166,-0.8431 1.0031,-1.1586 -0.9097,-0.5861 -1.5892,-1.4904 -1.8894,-2.5528 -2.2275,7.8373 -9.0221,13.9731 -17.6496,13.9731 -0.5024,0 -0.9995,-0.0207 -1.4894,-0.0612 z"
           style="fill:#ffffff;fill-rule:evenodd"
           id="path847-3" />
      </g>
      <g
         id="Layer1002-0">
        <g
           id="Layer1003-3"
           style="fill:#303030;fill-opacity:0.980392">
          <path
             d="m 105.1857,395.4127 c -1.4742,-0.2499 -3.3595,-2.594 -3.3595,-4.1781 v -80.7357 c 0,-1.7147 1.8942,-3.9925 3.4975,-4.1996 l 10.9027,-1.427 c 44.6352,-5.8399 92.1981,-7.6495 115.0965,-7.6495 25.829,0 71.8839,1.5108 117.4305,7.3475 l 10.9334,1.4026 c 1.6123,0.2071 3.5075,2.4737 3.5075,4.2027 v 80.4469 c 0,1.5709 -1.8853,3.9262 -3.3437,4.1792 l -10.4142,1.8096 c -45.8107,7.9554 -91.0544,10.2261 -118.6357,10.2261 -26.5111,0 -70.6539,-2.1513 -115.1442,-9.6569 z"
             style="fill:#303030;fill-opacity:0.980392;fill-rule:evenodd"
             id="path850-25" />
        </g>
        <g
           id="Layer1004-0"
           style="fill:#303030;fill-opacity:0.980392">
          <path
             d="m 348.4833,390.4328 c -45.4423,7.8932 -90.3237,10.1455 -117.6826,10.1455 -26.2997,0 -70.086,-2.136 -114.2179,-9.5824 l -8.8595,-1.4944 v -77.2103 l 9.2238,-1.2057 c 44.3553,-5.8011 91.6213,-7.6005 114.3758,-7.6005 25.6731,0 71.451,1.4964 116.7246,7.3026 l 9.2497,1.1843 v 76.9288 z"
             style="fill:#303030;fill-opacity:0.980392;fill-rule:evenodd"
             id="path853-1" />
        </g>
        <g
           id="Layer1005-3">
          <path
             d="m 230.8007,396.5195 c -26.1607,0 -69.7187,-2.1228 -113.6193,-9.5304 l -5.6379,-0.9528 v -70.1535 l 5.8712,-0.7702 c 44.1746,-5.7806 91.2471,-7.5729 113.9082,-7.5729 25.5729,0 71.1711,1.4944 116.2659,7.2751 l 5.8862,0.7548 v 69.8833 l -5.6072,0.9741 c -45.2051,7.8504 -89.8522,10.0925 -117.0671,10.0925 z"
             style="fill:#ffffff;fill-rule:evenodd"
             id="path856-8" />
        </g>
        <g
           id="Layer1006-9"
           style="fill:#303030;fill-opacity:0.980392">
          <path
             d="m 346.7867,321.8634 v 57.5558 c -44.7613,7.781 -89.0222,10.0017 -115.986,10.0017 -25.9194,0 -69.1012,-2.1085 -112.5689,-9.4457 v -57.816 c 43.844,-5.7348 90.5928,-7.5168 113.0911,-7.5168 25.3962,0 70.6955,1.4791 115.4638,7.221 z"
             style="fill:#303030;fill-opacity:0.980392;fill-rule:evenodd"
             id="path859-8" />
        </g>
        <path
           d="m 418.97,265.7435 c 0,0 11.6259,57.818 -52.1651,106.5649 0,0 71.7884,-39.2703 52.1651,-106.5649 z"
           style="fill:#303030;fill-opacity:0.980392;fill-rule:evenodd"
           id="path862-63" />
        <path
           d="m 399.7882,328.9526 c -0.8958,-7.4301 -8.2466,-14.6092 -8.2466,-14.6092 0,0 -5.4238,8.8055 -4.527,16.2359 0.8968,7.429 7.7737,10.6702 7.7737,10.6702 0,0 5.8967,-4.8679 4.9999,-12.2969 z"
           style="fill:#303030;fill-opacity:0.980392;fill-rule:evenodd"
           id="path864-0" />
        <path
           d="m 408.7923,314.7779 c -0.781,-6.4715 -7.1835,-12.7226 -7.1835,-12.7226 0,0 -4.7211,7.6685 -3.9425,14.1399 0.7823,6.4701 6.7703,9.2925 6.7703,9.2925 0,0 5.1367,-4.2398 4.3557,-10.7098 z"
           style="fill:#303030;fill-opacity:0.980392;fill-rule:evenodd"
           id="path866-5" />
        <path
           d="m 411.9807,306.1722 c 0,0 3.6862,-4.8379 1.6944,-10.3899 -1.9918,-5.5533 -8.9082,-9.7174 -8.9082,-9.7174 0,0 -2.6301,7.7804 -0.6383,13.3327 1.9928,5.552 7.8521,6.7746 7.8521,6.7746 z"
           style="fill:#303030;fill-opacity:0.980392;fill-rule:evenodd"
           id="path868-3" />
        <path
           d="m 416.4863,286.6822 c 0,0 2.5315,-5.034 -0.2011,-9.715 -2.7343,-4.68 -9.6951,-7.2343 -9.6951,-7.2343 0,0 -1.0857,7.5146 1.6486,12.1933 2.7329,4.6813 8.2476,4.756 8.2476,4.756 z"
           style="fill:#303030;fill-opacity:0.980392;fill-rule:evenodd"
           id="path870-3" />
        <path
           d="m 423.7565,278.7597 c 0,0 4.9462,0.1228 7.549,-3.9785 2.6029,-4.1013 1.878,-10.8772 1.878,-10.8772 0,0 -6.3276,2.0513 -8.9291,6.1525 -2.6032,4.1026 -0.4979,8.7032 -0.4979,8.7032 z"
           style="fill:#303030;fill-opacity:0.980392;fill-rule:evenodd"
           id="path872-1" />
        <path
           d="m 419.683,270.2468 c 0,0 3.6029,-4.2878 2.0057,-9.495 -1.5958,-5.2055 -7.7863,-9.3563 -7.7863,-9.3563 0,0 -2.7588,7.0478 -1.1617,12.2534 1.5949,5.2072 6.9423,6.5979 6.9423,6.5979 z"
           style="fill:#303030;fill-opacity:0.980392;fill-rule:evenodd"
           id="path874-6" />
        <path
           d="m 427.7647,285.6823 c -3.7878,3.4673 -2.8747,8.7969 -2.8747,8.7969 0,0 5.0454,1.5459 8.8358,-1.92 3.7878,-3.4672 4.8828,-10.6341 4.8828,-10.6341 0,0 -7.0561,0.2913 -10.8439,3.7572 z"
           style="fill:#303030;fill-opacity:0.980392;fill-rule:evenodd"
           id="path876-6" />
        <path
           d="m 426.1805,302.4376 c -4.9472,3.0307 -5.0421,9.1738 -5.0421,9.1738 0,0 5.3043,2.8357 10.2514,-0.1951 4.9472,-3.0294 7.6635,-10.7783 7.6635,-10.7783 0,0 -7.927,-1.2308 -12.8728,1.7996 z"
           style="fill:#303030;fill-opacity:0.980392;fill-rule:evenodd"
           id="path878-8" />
        <path
           d="m 402.3526,346.3108 c 0,0 5.8648,4.9085 12.75,2.4568 6.8835,-2.4544 12.1808,-11.3404 12.1808,-11.3404 0,0 -9.5135,-3.6095 -16.3987,-1.1561 -6.8849,2.4531 -8.5321,10.0397 -8.5321,10.0397 z"
           style="fill:#303030;fill-opacity:0.980392;fill-rule:evenodd"
           id="path880-00" />
        <path
           d="m 414.1753,328.4594 c 0,0 4.824,4.0351 10.4817,2.0186 5.6601,-2.0162 10.0138,-9.3225 10.0138,-9.3225 0,0 -7.8205,-2.967 -13.4819,-0.9494 -5.6591,2.0151 -7.0136,8.2533 -7.0136,8.2533 z"
           style="fill:#303030;fill-opacity:0.980392;fill-rule:evenodd"
           id="path882-1" />
        <path
           d="m 342.0798,207.1482 c 0,0 48.9171,23.2714 49.0741,99.9022 0,0 11.2617,-77.5355 -49.0741,-99.9022 z"
           style="fill:#303030;fill-opacity:0.980392;fill-rule:evenodd"
           id="path884-2" />
        <path
           d="m 377.754,257.2944 c -5.9529,-3.453 -15.3237,-1.7662 -15.3237,-1.7662 0,0 3.4329,9.1168 9.3861,12.5698 5.9528,3.4529 12.1692,-0.0648 12.1692,-0.0648 0,0 -0.2798,-7.2848 -6.2316,-10.7388 z"
           style="fill:#303030;fill-opacity:0.980392;fill-rule:evenodd"
           id="path886-3" />
        <path
           d="m 372.3797,242.4073 c -5.1848,-3.0079 -13.3462,-1.5388 -13.3462,-1.5388 0,0 2.9905,7.9393 8.174,10.9482 5.1848,3.0066 10.5992,-0.0566 10.5992,-0.0566 0,0 -0.2436,-6.3463 -5.427,-9.3528 z"
           style="fill:#303030;fill-opacity:0.980392;fill-rule:evenodd"
           id="path888-2" />
        <path
           d="m 367.8444,235.132 c 0,0 -1.4916,-5.5557 -6.6774,-7.1125 -5.1874,-1.5555 -12.1038,1.4763 -12.1038,1.4763 0,0 4.2408,6.3811 9.427,7.9368 5.1871,1.5565 9.3542,-2.3006 9.3542,-2.3006 z"
           style="fill:#303030;fill-opacity:0.980392;fill-rule:evenodd"
           id="path890-6" />
        <path
           d="m 356.0582,220.7626 c 0,0 -2.2808,-4.7717 -7.2409,-5.2683 -4.9588,-0.4945 -10.7208,3.4721 -10.7208,3.4721 0,0 4.9083,5.0347 9.8684,5.5305 4.9598,0.4955 8.0933,-3.7343 8.0933,-3.7343 z"
           style="fill:#303030;fill-opacity:0.980392;fill-rule:evenodd"
           id="path892-0" />
        <path
           d="m 354.3041,210.7083 c 0,0 2.8511,-3.7633 1.2951,-8.0702 -1.5573,-4.3059 -6.9343,-7.5266 -6.9343,-7.5266 0,0 -2.0266,6.0468 -0.4693,10.3524 1.5573,4.3059 6.1085,5.2444 6.1085,5.2444 z"
           style="fill:#303030;fill-opacity:0.980392;fill-rule:evenodd"
           id="path894-4" />
        <path
           d="m 345.7823,209.1106 c 0,0 -1.1335,-5.1855 -5.8463,-6.8552 -4.7105,-1.6686 -11.2126,0.8097 -11.2126,0.8097 0,0 3.6321,6.0721 8.3426,7.7407 4.7108,1.6711 8.7163,-1.6952 8.7163,-1.6952 z"
           style="fill:#303030;fill-opacity:0.980392;fill-rule:evenodd"
           id="path896-1" />
        <path
           d="m 361.6211,211.4674 c 0.4298,4.87 4.8499,7.1378 4.8499,7.1378 0,0 3.952,-3.0461 3.5232,-7.916 -0.4285,-4.8713 -5.0769,-9.7198 -5.0769,-9.7198 0,0 -3.7247,5.6281 -3.2962,10.498 z"
           style="fill:#303030;fill-opacity:0.980392;fill-rule:evenodd"
           id="path898-7" />
        <path
           d="m 373.0315,222.0487 c -0.5383,5.5233 3.9169,9.0268 3.9169,9.0268 0,0 5.0421,-2.5254 5.5794,-8.0501 0.5387,-5.5244 -3.6311,-11.9539 -3.6311,-11.9539 0,0 -5.3275,5.4538 -5.8652,10.9772 z"
           style="fill:#303030;fill-opacity:0.980392;fill-rule:evenodd"
           id="path900-7" />
        <path
           d="m 391.9219,264.999 c 0,0 6.8769,-1.8024 8.9211,-8.5047 2.0423,-6.7037 -1.5221,-15.7676 -1.5221,-15.7676 0,0 -7.9586,5.3549 -10.0018,12.0586 -2.0433,6.7023 2.6028,12.2137 2.6028,12.2137 z"
           style="fill:#303030;fill-opacity:0.980392;fill-rule:evenodd"
           id="path902-0" />
        <path
           d="m 385.4234,245.8746 c 0,0 5.6531,-1.4835 7.3333,-6.9936 1.6791,-5.509 -1.2517,-12.962 -1.2517,-12.962 0,0 -6.5429,4.4031 -8.2221,9.9145 -1.6801,5.5091 2.1405,10.0411 2.1405,10.0411 z"
           style="fill:#303030;fill-opacity:0.980392;fill-rule:evenodd"
           id="path904-4" />
        <path
           d="m 277.8835,256.0865 c 0,0 43.9972,-5.7727 76.7369,47.5566 0,0 -25.1675,-59.0931 -76.7369,-47.5566 z"
           style="fill:#303030;fill-opacity:0.980392;fill-rule:evenodd"
           id="path906-0" />
        <path
           d="m 324.0959,274.994 c -5.6193,0.2698 -11.4317,5.6581 -11.4317,5.6581 0,0 6.2761,4.8099 11.8943,4.5405 5.618,-0.2694 8.4528,-5.5162 8.4528,-5.5162 0,0 -3.2975,-4.9505 -8.9154,-4.6824 z"
           style="fill:#303030;fill-opacity:0.980392;fill-rule:evenodd"
           id="path908-2" />
        <path
           d="m 314.0121,267.037 c -4.8944,0.2333 -9.9551,4.9266 -9.9551,4.9266 0,0 5.4646,4.1879 10.3567,3.9546 4.893,-0.236 7.3614,-4.8041 7.3614,-4.8041 0,0 -2.871,-4.3131 -7.763,-4.0771 z"
           style="fill:#303030;fill-opacity:0.980392;fill-rule:evenodd"
           id="path910-3" />
        <path
           d="m 307.7535,264.0052 c 0,0 -3.405,-3.2016 -7.6824,-1.9551 -4.2773,1.2475 -7.8065,6.4701 -7.8065,6.4701 0,0 5.6733,2.5396 9.9493,1.2935 4.2784,-1.2478 5.5396,-5.8085 5.5396,-5.8085 z"
           style="fill:#303030;fill-opacity:0.980392;fill-rule:evenodd"
           id="path912-32" />
        <path
           d="m 293.4216,259.2891 c 0,0 -3.6205,-2.2992 -7.2891,-0.4164 -3.6673,1.8852 -5.9927,7.2391 -5.9927,7.2391 0,0 5.5642,1.3027 9.2315,-0.5825 3.6673,-1.8828 4.0503,-6.2402 4.0503,-6.2402 z"
           style="fill:#303030;fill-opacity:0.980392;fill-rule:evenodd"
           id="path914-4" />
        <path
           d="m 287.9172,253.0714 c 0,0 0.385,-3.9042 -2.5338,-6.2054 -2.9182,-2.3003 -8.0359,-2.1284 -8.0359,-2.1284 0,0 1.1613,5.1253 4.0792,7.4256 2.9205,2.3003 6.4905,0.9082 6.4905,0.9082 z"
           style="fill:#303030;fill-opacity:0.980392;fill-rule:evenodd"
           id="path916-2" />
        <path
           d="m 281.2992,255.7891 c 0,0 -2.9975,-3.1038 -6.994,-2.1485 -3.9926,0.9538 -7.468,5.6038 -7.468,5.6038 0,0 5.1171,2.6001 9.1096,1.6448 3.9952,-0.9542 5.3524,-5.1001 5.3524,-5.1001 z"
           style="fill:#303030;fill-opacity:0.980392;fill-rule:evenodd"
           id="path918-6" />
        <path
           d="m 293.3396,250.3114 c 2.3735,3.2016 6.4202,2.7937 6.4202,2.7937 0,0 1.4564,-3.8993 -0.9171,-7.1006 -2.3722,-3.2013 -7.6751,-4.49 -7.6751,-4.49 0,0 -0.2001,5.597 2.172,8.7969 z"
           style="fill:#303030;fill-opacity:0.980392;fill-rule:evenodd"
           id="path920-9" />
        <path
           d="m 305.7969,252.5554 c 1.9766,4.0917 6.5735,4.5306 6.5735,4.5306 0,0 2.4379,-4.0266 0.4601,-8.1183 -1.9776,-4.0917 -7.6201,-6.6975 -7.6201,-6.6975 0,0 -1.391,6.1945 0.5865,10.2852 z"
           style="fill:#303030;fill-opacity:0.980392;fill-rule:evenodd"
           id="path922-7" />
        <path
           d="m 337.2488,273.9944 c 0,0 4.0255,-4.3468 2.5959,-9.9363 -1.4322,-5.5895 -7.775,-10.3033 -7.775,-10.3033 0,0 -3.2657,7.3087 -1.8348,12.8982 1.4299,5.5895 7.0139,7.3414 7.0139,7.3414 z"
           style="fill:#303030;fill-opacity:0.980392;fill-rule:evenodd"
           id="path924-8" />
        <path
           d="m 324.5771,263.5888 c 0,0 3.3079,-3.5757 2.1322,-8.1691 -1.1756,-4.5957 -6.3909,-8.4709 -6.3909,-8.4709 0,0 -2.6849,6.0097 -1.5079,10.6055 1.1756,4.5944 5.7666,6.0345 5.7666,6.0345 z"
           style="fill:#303030;fill-opacity:0.980392;fill-rule:evenodd"
           id="path926-8" />
        <g
           id="Layer1007-1">
          <g
             id="Layer1008-88">
            <path
               d="m 155.8659,353.5658 c 0,-0.3203 0.0536,-0.3203 0.1559,-0.4539 l 0.1539,-0.1897 c 0.0506,-0.0633 0.2581,-0.0633 0.3097,-0.0633 0.1549,0 0.4627,0.3866 0.5679,0.5131 l 9.489,14.1064 c 0.7217,1.0966 0.9778,1.7392 0.9778,2.2564 0,1.0292 -0.8756,0.9619 -1.5973,1.0925 -0.3604,0.0663 -1.3403,0.257 -1.3403,1.5464 0,1.6127 1.4435,1.5494 1.9598,1.5494 2.6814,0 5.2071,-0.3866 7.7863,-0.3866 2.6299,0 5.3113,0.3866 7.9928,0.3866 0.9283,0 2.3201,-0.0663 2.3201,-1.6127 0,-1.4168 -1.0305,-1.4831 -1.3918,-1.4831 -1.8565,-0.1928 -2.2159,-0.3836 -4.538,-3.7987 l -14.1808,-20.6777 c -0.2065,-0.3233 -0.414,-0.5794 -0.414,-1.0333 0,-0.3193 0.2075,-0.7059 0.3614,-0.8997 l 6.2396,-7.6015 c 1.2896,-1.6127 3.0954,-4.5076 7.8905,-4.832 1.652,-0.1254 3.0429,0.0633 3.0429,-1.6719 0,-1.4199 -0.9799,-1.4831 -1.8049,-1.4831 -2.3717,0 -4.6918,0.3866 -7.0636,0.3866 -2.0649,0 -4.1786,-0.3866 -6.2405,-0.3866 -1.5478,0 -1.9598,0.5794 -1.9598,1.4199 0,1.5423 1.1338,1.6097 2.2179,1.6719 1.0831,0.0632 1.9071,0 1.9071,1.223 0,1.0966 -1.1338,2.7063 -4.3325,6.6988 l -7.7873,9.6008 c -0.2561,0.3233 -0.7218,0.3233 -0.7218,-0.3866 v -11.2737 c 0,-3.9925 0.8777,-6.0551 3.715,-6.2489 0.5659,-0.0633 1.4941,-0.0633 1.4941,-1.2221 0,-1.4831 -1.1853,-1.4831 -1.7016,-1.4831 -2.7857,0 -5.5695,0.3866 -8.3542,0.3866 -2.7857,0 -5.5695,-0.3866 -8.3552,-0.3866 -0.5152,0 -1.7016,0 -1.7016,1.4831 0,1.1588 0.9282,1.1588 1.4961,1.2221 2.8354,0.1938 3.713,2.2564 3.713,6.2489 v 27.1825 c 0,3.9956 -0.8776,6.0551 -3.713,6.2479 -0.5679,0.0663 -1.4961,0.0663 -1.4961,1.2261 0,1.4831 1.1864,1.4831 1.7016,1.4831 2.7857,0 5.5695,-0.3866 8.3552,-0.3866 2.7847,0 5.5685,0.3866 8.3542,0.3866 0.5163,0 1.7016,0 1.7016,-1.4831 0,-1.1598 -0.9282,-1.1598 -1.4435,-1.2261 -3.0438,-0.1928 -3.7656,-2.5757 -3.7656,-6.2479 z"
               style="fill:#ffffff;fill-rule:evenodd"
               id="path928-1" />
          </g>
          <g
             id="Layer1009-29">
            <path
               d="m 210.3773,348.2207 c 0.0526,-2.4492 0.1022,-8.2451 -10.2107,-8.2451 -3.5055,0 -7.2205,0.8364 -10.7796,3.9292 -2.3717,2.0595 -3.9691,4.829 -3.9691,6.761 0,1.2241 0.9789,1.6739 1.8049,1.6739 2.0113,0 5.9814,-1.0935 6.9107,-3.7324 l 0.825,-2.3196 c 0.5152,-1.4199 1.4951,-3.609 4.0743,-3.609 0.4627,0 2.8354,0.0663 2.7838,4.0588 l -0.1033,5.4747 c -0.0506,2.3829 -0.2065,2.5797 -1.0305,3.0296 -10.2107,5.3451 -15.0078,7.6606 -15.0078,13.5892 0,3.7365 2.3221,6.2489 5.8792,6.2489 4.2799,0 8.4585,-4.3832 9.1286,-5.0891 0.2581,-0.256 0.4636,-0.5161 0.7724,-0.8364 0.0516,-0.0663 0.1549,-0.1296 0.2075,-0.1296 0.0506,0 0.1022,0.2561 0.3097,0.8365 1.0305,3.2856 2.4234,4.832 5.0533,4.832 2.9902,0 5.0532,-1.677 6.6009,-3.3499 1.1854,-1.2853 1.7017,-2.1258 1.7017,-3.0918 0,-0.7732 -0.4637,-0.8997 -0.9799,-0.8997 -0.2571,0 -0.5153,0.1897 -1.1338,0.7059 -0.5678,0.4539 -1.0841,0.8405 -1.7542,0.8405 -0.6711,0 -1.4951,-0.5834 -1.4445,-3.6732 z m -8.8169,13.6566 v 0 c -0.0536,3.9915 -1.1873,6.8242 -4.1786,6.8242 -1.4961,0 -2.6814,-1.1599 -2.6814,-3.3458 0,-3.8028 3.1451,-5.3482 5.4146,-6.7018 0.6194,-0.3866 0.8776,-0.4529 1.0314,-0.4529 0.2582,0 0.4637,0.3233 0.4637,0.9027 z"
               style="fill:#ffffff;fill-rule:evenodd"
               id="path931-6" />
          </g>
          <g
             id="Layer1010-35">
            <path
               d="m 251.3303,332.8209 c -0.411,-2.7685 -0.3604,-2.895 -1.8039,-3.4121 -2.2179,-0.7732 -4.8477,-1.5424 -8.663,-1.5424 -15.2659,0 -23.1048,12.0429 -23.1048,23.7664 0,9.66 5.2081,23.2533 22.123,23.2533 1.9597,0 4.7971,-0.2561 8.3046,-1.8025 4.2788,-1.8697 4.0733,-3.0255 4.2788,-5.6684 l 0.2065,-2.643 c 0.1559,-1.8698 0.3117,-3.6049 -1.1854,-3.6049 -0.412,0 -0.6185,0.1255 -0.8766,0.5131 -0.3097,0.4529 -0.5152,1.0323 -0.9292,1.9993 -0.9263,1.8657 -1.4941,3.0887 -2.1136,4.0588 -2.1643,3.4121 -5.0533,4.5719 -7.3734,4.5719 -6.9107,0 -12.5338,-8.3114 -12.5338,-21.0642 0,-10.0466 4.3315,-20.8082 13.0481,-20.8082 3.6613,0 4.8487,1.933 7.2711,5.5389 1.1337,1.7433 1.7016,3.2897 2.8373,3.2897 1.5458,0 1.1338,-2.1931 0.9283,-3.5457 z"
               style="fill:#ffffff;fill-rule:evenodd"
               id="path934-91" />
          </g>
          <g
             id="Layer1011-5">
            <path
               d="m 281.1443,353.9524 c 1.238,0 2.5276,-0.1938 2.5276,-2.7062 0,-5.6052 -4.7454,-11.2706 -12.3759,-11.2706 -10.5731,0 -15.4714,9.2743 -15.4714,17.3257 0,8.1176 5.2081,17.7786 14.9551,17.7786 4.7435,0 9.1802,-2.3829 11.8101,-5.7317 0.3078,-0.3866 0.824,-1.1598 0.824,-2.0636 0,-0.8354 -0.5669,-1.0925 -0.8756,-1.0925 -0.5669,0 -1.1864,0.71 -2.064,1.4791 -1.5477,1.2904 -3.7636,2.3196 -5.8266,2.3196 -5.364,0 -9.6448,-5.7949 -9.6448,-13.9126 0,-2.1931 0.5172,-2.1258 1.2896,-2.1258 z M 267.4798,351.44 v 0 c -1.7533,0 -1.9091,-0.5131 -1.9091,-1.2904 0,-1.9289 0.8259,-4.122 1.8048,-5.3451 1.0841,-1.4158 2.7341,-2.2553 4.4864,-2.2553 2.6834,0 3.7656,2.4491 3.7656,4.6382 0,3.6059 -2.476,4.2526 -5.9319,4.2526 z"
               style="fill:#ffffff;fill-rule:evenodd"
               id="path937-8" />
          </g>
          <g
             id="Layer1012-11">
            <path
               d="m 320.8623,332.8209 c -0.412,-2.7685 -0.3594,-2.895 -1.8049,-3.4121 -2.2178,-0.7732 -4.8477,-1.5424 -8.6629,-1.5424 -15.2659,0 -23.1049,12.0429 -23.1049,23.7664 0,9.66 5.2101,23.2533 22.125,23.2533 1.9598,0 4.7951,-0.2561 8.3026,-1.8025 4.2809,-1.8697 4.0734,-3.0255 4.2809,-5.6684 l 0.2045,-2.643 c 0.1558,-1.8698 0.3117,-3.6049 -1.1854,-3.6049 -0.412,0 -0.6185,0.1255 -0.8766,0.5131 -0.3098,0.4529 -0.5153,1.0323 -0.9273,1.9993 -0.9282,1.8657 -1.4961,3.0887 -2.1146,4.0588 -2.1652,3.4121 -5.0542,4.5719 -7.3743,4.5719 -6.9108,0 -12.5338,-8.3114 -12.5338,-21.0642 0,-10.0466 4.3334,-20.8082 13.048,-20.8082 3.6614,0 4.8487,1.933 7.2731,5.5389 1.1337,1.7433 1.7016,3.2897 2.8354,3.2897 1.5477,0 1.1337,-2.1931 0.9282,-3.5457 z"
               style="fill:#ffffff;fill-rule:evenodd"
               id="path940-87" />
          </g>
        </g>
        <g
           id="Layer1013-2">
          <path
             d="m 355.2423,302.6971 c 0,-8.0932 6.0589,-15.0581 13.9356,-15.0581 7.8906,0 13.9346,7.0067 13.9346,15.0581 0,8.0513 -6.044,15.0591 -13.9346,15.0591 -7.8767,0 -13.9356,-6.969 -13.9356,-15.0591 z"
             style="fill:#ffffff;fill-rule:evenodd"
             id="path944-89" />
        </g>
        <g
           id="Layer1014-4">
          <g
             id="Layer1015-18">
            <path
               d="m 369.1779,310.7025 c -4.0058,0 -7.2919,-3.5947 -7.2919,-8.0054 0,-4.4138 3.2861,-8.0085 7.2919,-8.0085 4.0069,0 7.292,3.6232 7.292,8.0085 0,4.3862 -3.2851,8.0054 -7.292,8.0054 z"
               style="fill:#ffffff;fill-rule:evenodd"
               id="path947-0" />
          </g>
          <g
             id="Layer1016-4"
             style="fill:#303030;fill-opacity:0.980392">
            <path
               d="m 369.1779,312.4988 c 5.0781,0.0276 9.2328,-4.4352 9.2328,-9.8017 0,-5.3655 -4.1547,-9.8048 -9.2328,-9.8048 -5.077,0 -9.2338,4.3893 -9.2338,9.8048 0,5.4155 4.1568,9.7762 9.2338,9.8017 z m 0,-1.7963 v 0 c -4.0058,0 -7.2919,-3.5947 -7.2919,-8.0054 0,-4.4138 3.2861,-8.0085 7.2919,-8.0085 4.0069,0 7.292,3.6232 7.292,8.0085 0,4.3862 -3.2851,8.0054 -7.292,8.0054 z m -3.4588,-4.9126 v 0 c 0,1.2118 -0.5976,1.3985 -0.9719,1.3985 -0.0993,0 -0.3981,-0.0245 -0.3981,0.2632 0,0.3203 0.2988,0.3447 0.4477,0.3447 0.7218,0 1.4693,-0.0775 2.2159,-0.0775 0.7466,0 1.4683,0.0775 2.1891,0.0775 0.1509,0 0.4487,-0.0244 0.4487,-0.3447 0,-0.2877 -0.2978,-0.2632 -0.3991,-0.2632 -0.3723,0 -0.9689,-0.1867 -0.9689,-1.3985 v -2.4849 c 0,-0.1336 0.0992,-0.3437 0.2233,-0.3437 h 0.1241 c 0.3981,0 0.5232,0.0806 1.0702,1.2159 l 1.5676,3.2744 c 0.0755,0.1866 0.0993,0.3447 0.4229,0.3447 0.3743,0 0.4736,-0.052 1.3949,-0.052 0.3991,0 0.7714,0.052 1.1705,0.052 0.1231,0 0.3723,0.0286 0.4219,-0.3162 0,-0.0285 0,-0.0775 0,-0.105 -0.0258,-0.0806 -0.0993,-0.1581 -0.3236,-0.1867 -0.2989,-0.0245 -0.4974,-0.053 -0.9452,-0.9772 l -1.1694,-2.3788 c -0.2999,-0.6039 -0.698,-1.1874 -1.519,-1.2934 v -0.0531 c 1.37,0 2.5892,-0.7936 2.5892,-2.3012 0,-0.9487 -0.4736,-2.5094 -2.7639,-2.5094 -0.422,0 -0.8201,0 -1.244,0.0286 -0.7714,0.0245 -1.5169,0.053 -2.2893,0.053 -0.7466,0 -1.4941,-0.0816 -2.2159,-0.0816 -0.1489,0 -0.4477,0.0286 -0.4477,0.3448 0,0.1581 0.0992,0.2387 0.3981,0.2632 0.7217,0.1091 0.9719,0.5559 0.9719,1.4026 z m 2.5634,-6.6069 v 0 c 0,-0.2632 0.0496,-0.7906 0.7962,-0.7906 0.8964,0 1.6182,0.7906 1.6182,1.9779 0,1.1109 -0.823,1.983 -1.8178,1.983 h -0.1985 c -0.424,0 -0.3981,-0.2356 -0.3981,-0.5559 z"
               style="fill:#303030;fill-opacity:0.980392;fill-rule:evenodd"
               id="path950-6" />
          </g>
        </g>
      </g>
      <path
         d="m 143.3939,275.1353 -4.728,7.2857 -15.7763,-11.2784 8.7727,22.0708 -3.0847,4.7534 -24.7967,-17.7272 4.7281,-7.2858 15.4794,11.0662 -8.6276,-21.6249 3.2364,-4.987 z m 8.0806,-36.3754 c 2.0268,2.4814 2.6781,5.0413 1.954,7.6798 -0.6039,2.1578 -2.0538,4.2696 -4.3498,6.3356 l -4.2964,3.8658 8.0096,9.8063 -6.3765,5.7375 -19.5269,-23.9075 10.1272,-9.1124 c 2.296,-2.0659 4.6863,-3.2438 7.1707,-3.5338 2.8905,-0.324 5.3198,0.7189 7.2881,3.1287 z m -6.3472,5.7732 c -1.1498,-1.4077 -2.4473,-2.103 -3.8925,-2.0858 -1.2536,0.0104 -2.4942,0.5677 -3.7218,1.6723 l -1.7049,1.534 6.4311,7.8738 1.6708,-1.5034 c 1.2048,-1.0841 1.9663,-2.2039 2.2845,-3.3595 0.3799,-1.4181 0.0241,-2.7952 -1.0672,-4.1314 z m 45.9228,-3.3111 -8.0301,4.3296 -14.0731,-9.8746 1.123,-18.5451 3.7554,-2.0248 -0.7979,13.4322 z m -15.7405,8.4869 -7.4707,4.0281 -13.7092,-28.0104 7.4708,-4.0281 z m 35.9594,-46.188 -6.1872,34.2252 -3.7818,1.0319 0.9894,-6.123 -18.7534,-21.5666 8.7807,-2.3961 11.7813,14.028 3.3022,-18.1437 z m 33.563,2.946 -8.395,0.267 0.7862,27.2349 -8.395,0.267 -0.7862,-27.2349 -8.3949,0.2669 -0.1224,-4.2408 25.1848,-0.8009 z m 31.4719,26.2231 c -1.7289,2.3101 -3.8693,3.9005 -6.4212,4.7712 -2.5519,0.8706 -5.2477,0.9855 -8.0872,0.3447 -4.2446,-0.9578 -7.5871,-3.2551 -10.0272,-6.8917 -2.5092,-3.7487 -3.3074,-7.8505 -2.3948,-12.3057 0.9692,-4.7317 3.3295,-8.3297 7.0807,-10.7941 3.609,-2.368 7.5358,-3.0731 11.7805,-2.1152 2.7517,0.621 5.0749,1.764 6.9695,3.4292 1.8946,1.6651 3.2812,3.8666 4.1599,6.6044 l -4.1577,1.9066 c -0.6343,-2.1362 -1.3809,-3.7994 -2.2396,-4.9897 -1.1011,-1.5021 -2.5445,-2.4548 -4.3302,-2.8577 -2.8395,-0.6408 -5.2346,0.3617 -7.1854,3.0075 -1.4422,1.9568 -2.5063,4.6098 -3.1923,7.9588 -0.6294,3.0725 -0.5466,5.8075 0.2487,8.205 0.9412,2.8804 2.7877,4.6312 5.5395,5.2522 1.7856,0.4029 3.5634,0.097 5.3333,-0.9181 1.3912,-0.8111 2.7942,-2.0535 4.209,-3.7273 z m 24.9761,20.2827 -8.1881,-3.9902 -1.2227,-17.7213 14.6312,-10.4633 3.8293,1.8661 -10.5878,7.5914 z m -16.0503,-7.8215 -7.6178,-3.7124 12.6345,-28.5617 7.6178,3.7123 z m 37.8699,26.1594 -6.637,-5.402 11.6972,-15.8323 -21.5287,7.8302 -4.33,-3.5242 18.3855,-24.8847 6.637,5.402 -11.4771,15.5343 21.0955,-7.7056 4.5431,3.6976 z m 40.3621,0.8559 -6.3294,-9.5626 3.0984,-2.2593 6.3294,9.5626 z m -22.7735,25.3305 -4.7919,-7.2398 15.6765,-11.4307 -22.7747,0.7066 -3.1262,-4.7233 24.6398,-17.9665 4.7919,7.2398 -15.3815,11.2156 22.3259,-0.7238 3.28,4.9555 z"
         style="fill:#ffffff;fill-opacity:1;fill-rule:evenodd"
         id="path955-6" />
    </g>
  </g>
</svg>
