<?xml version="1.0" encoding="UTF-8" standalone="no"?>
<svg
   xmlns:dc="http://purl.org/dc/elements/1.1/"
   xmlns:cc="http://creativecommons.org/ns#"
   xmlns:rdf="http://www.w3.org/1999/02/22-rdf-syntax-ns#"
   xmlns:svg="http://www.w3.org/2000/svg"
   xmlns="http://www.w3.org/2000/svg"
   xmlns:sodipodi="http://sodipodi.sourceforge.net/DTD/sodipodi-0.dtd"
   xmlns:inkscape="http://www.inkscape.org/namespaces/inkscape"
   width="42.357468mm"
   height="13.222211mm"
   viewBox="0 0 42.357468 13.222211"
   version="1.1"
   id="svg10431"
   inkscape:version="1.0.2 (e86c870879, 2021-01-15, custom)"
   sodipodi:docname="txt.svg">
  <defs
     id="defs10425" />
  <sodipodi:namedview
     id="base"
     pagecolor="#ffffff"
     bordercolor="#666666"
     borderopacity="1.0"
     inkscape:pageopacity="0.0"
     inkscape:pageshadow="2"
     inkscape:zoom="3.3342376"
     inkscape:cx="34.225232"
     inkscape:cy="28.979444"
     inkscape:document-units="mm"
     inkscape:current-layer="layer1"
     inkscape:document-rotation="0"
     showgrid="false"
     fit-margin-top="0"
     fit-margin-left="0"
     fit-margin-right="0"
     fit-margin-bottom="0"
     inkscape:window-width="1920"
     inkscape:window-height="1001"
     inkscape:window-x="-9"
     inkscape:window-y="-9"
     inkscape:window-maximized="1" />
  <metadata
     id="metadata10428">
    <rdf:RDF>
      <cc:Work
         rdf:about="">
        <dc:format>image/svg+xml</dc:format>
        <dc:type
           rdf:resource="http://purl.org/dc/dcmitype/StillImage" />
        <dc:title></dc:title>
      </cc:Work>
    </rdf:RDF>
  </metadata>
  <g
     inkscape:label="Слой 1"
     inkscape:groupmode="layer"
     id="layer1"
     transform="translate(-84.654602,-141.55556)">
    <path
       d="m 87.635031,145.01766 v 2.07121 c 0.3733,0 0.746601,0 1.113843,0 v -4.23277 h -0.391319 l -2.131431,2.08031 v -2.06222 c -0.367321,0 -0.734562,0 -1.101883,0 v 4.21468 h 0.385339 z m 3.682444,2.07121 v -1.0778 h 0.776764 c 2.016971,0 2.016971,-3.1309 0,-3.13688 -0.62021,0 -1.246399,0 -1.854465,0 0,1.40891 0,2.81176 0,4.21468 0.355203,0 0.716465,0 1.077701,0 z m 0.770678,-2.04713 h -0.770678 c 0,-0.34324 0,-0.86103 0,-1.20417 0.246909,0 0.517816,-0.006 0.770678,0 0.62619,0.006 0.590074,1.20417 0,1.20417 z m 3.845084,2.04713 v -1.60763 c 0.138536,0 0.270986,0 0.415475,-0.0241 l 0.927232,1.63174 h 1.19814 v -0.16859 l -1.143979,-1.85444 c 0.836956,-0.53591 0.812853,-1.3307 0.812853,-2.19165 -0.373301,0 -0.740622,0 -1.107837,0 0,0.7887 0.05413,1.59552 -1.023567,1.59552 h -0.07832 v -1.59552 c -0.373301,0 -0.734563,0 -1.095825,0 v 4.21468 c 0.361262,0 0.722524,0 1.095825,0 z m 3.833019,0 h 1.162104 l 1.99895,-4.05214 v -0.16254 h -1.16808 l -0.7225,1.55343 h -0.0302 l -0.79476,-1.55343 h -1.204194 v 0.16254 l 1.420944,2.57696 -0.662304,1.36072 z m 4.971014,-3.2513 v 3.2513 c 0.35529,0 0.71049,0 1.06577,0 v -3.2513 h 1.02955 c 0,-0.32515 0,-0.64432 0,-0.96338 h -3.1309 c 0,0.31906 0,0.63823 0,0.96338 z m 2.92391,1.14398 c 0.006,1.43298 1.08977,2.1555 2.16149,2.14952 0.89718,0 1.8424,-0.46974 1.99895,-1.66187 -0.36724,0 -0.69842,0 -1.05968,0 -0.11435,0.45162 -0.48167,0.6804 -0.93927,0.6804 -0.63823,-0.006 -1.04764,-0.54795 -1.04764,-1.16805 0,-0.69845 0.41547,-1.17414 1.04764,-1.17414 0.45162,0 0.77068,0.19266 0.92125,0.62021 0.36722,0 0.69237,0 1.05969,0 -0.16262,-1.12597 -1.10787,-1.60158 -1.98094,-1.60158 -1.07172,0 -2.15551,0.7225 -2.16149,2.15551 z m 6.50026,2.10732 v -1.60763 c 0.13854,0 0.27101,0 0.4155,-0.0241 l 0.92723,1.63174 h 1.19812 v -0.16859 l -1.14398,-1.85444 c 0.83696,-0.53591 0.81288,-1.3307 0.81288,-2.19165 -0.3733,0 -0.74062,0 -1.10787,0 0,0.7887 0.0542,1.59552 -1.02354,1.59552 h -0.0783 v -1.59552 c -0.3733,0 -0.73454,0 -1.0958,0 v 4.21468 c 0.36126,0 0.7225,0 1.0958,0 z m 6.09095,-2.07121 v 2.07121 c 0.3733,0 0.7466,0 1.11381,0 v -4.23277 h -0.39132 l -2.1314,2.08031 v -2.06222 c -0.36732,0 -0.73456,0 -1.10188,0 v 4.21468 h 0.38534 z m 3.0262,2.07121 h -0.38534 v -4.21468 c 0.36724,0 0.73456,0 1.1018,0 v 2.06222 l 2.1314,-2.08031 h 0.39143 v 4.23277 c -0.36735,0 -0.74065,0 -1.11392,0 v -2.07121 z m 1.15604,-5.53331 c -0.21079,0.0119 -0.4155,0.0361 -0.62021,0.0602 0.018,0.67435 0.39738,1.02963 1.04764,1.02963 0.66837,0 1.02963,-0.35528 1.05371,-1.02963 -0.20471,-0.0241 -0.40942,-0.0482 -0.62021,-0.0602 -0.0361,0.25289 -0.19863,0.33121 -0.44553,0.33121 -0.25289,0 -0.39741,-0.10837 -0.4154,-0.33121 z m -37.811128,11.42191 0.770678,1.32461 h 1.161997 v -0.16262 l -1.366705,-2.07121 1.216237,-1.81832 v -0.16253 h -1.113922 l -0.674344,1.09582 h -0.03006 l -0.668364,-1.09582 h -1.119901 v 0.16253 l 1.216236,1.81832 -1.360752,2.07121 v 0.16262 h 1.162103 l 0.770678,-1.32461 z m 4.389226,-1.14398 1.083786,2.46859 h 1.053703 v -0.15656 l -1.902619,-4.11234 h -0.463655 l -1.89656,4.11234 v 0.15656 h 1.053624 z m 5.322543,-1.74609 c -0.987451,0 -1.655736,0 -2.631122,0 0,1.39686 0,2.80577 0,4.21468 0.975386,0 1.69791,0 2.685335,0 0,-0.31917 0,-0.64429 0,-0.95737 -0.632248,0 -0.993483,0 -1.613614,0 0,-0.25289 0,-0.49374 0,-0.74054 h 1.43301 c 0,-0.31917 0,-0.63823 0,-0.95737 h -1.43301 v -0.59603 c 0.620131,0 0.933212,0 1.559401,0 0,-0.32515 0,-0.65027 0,-0.96337 z m 2.829825,2.42641 c 0.590074,0 0.596133,0.82492 0,0.82492 -0.252862,0 -0.523769,0 -0.770678,0 v -0.82492 z m -0.770678,-0.95131 v -0.51173 h 1.950802 v -0.96337 h -3.028503 v 4.21468 h 1.854464 c 2.016969,-0.006 2.016969,-2.73958 0,-2.73958 z m 7.164942,0.6382 c 0,-2.91412 -4.32305,-2.91412 -4.32305,0 0,2.92024 4.32305,2.92024 4.32305,0 z m -3.21519,0 c 0,-1.51728 2.11341,-1.51728 2.11341,0 0,1.52935 -2.11341,1.52935 -2.11341,0 z m 4.8288,-1.04764 c 0,-0.15653 0.13854,-0.2468 0.37331,-0.2468 0.50575,0 0.51779,0.72847 -0.0119,0.72847 h -0.28295 v 0.87908 h 0.29499 c 0.72252,0 0.72252,0.95737 0,0.95737 -0.31308,0 -0.52986,-0.21077 -0.52986,-0.54187 h -0.94522 c 0,0.94523 0.55988,1.45108 1.47508,1.45108 1.08376,0 1.62565,-0.57811 1.62565,-1.32469 0,-0.47561 -0.18063,-0.8128 -0.60806,-1.04158 0.2468,-0.18669 0.36724,-0.50472 0.36724,-0.7797 0,-0.61119 -0.46358,-1.21925 -1.38483,-1.21925 -0.73456,0 -1.36671,0.36123 -1.33059,1.13789 z m 5.47908,3.14902 h 1.0537 v -0.15656 l -1.90262,-4.11234 h -0.46366 l -1.89656,4.11234 v 0.15656 h 1.05363 l 0.24691,-0.52986 h 1.66177 z m -0.59603,-1.45111 h -0.96335 l 0.47559,-1.10784 z m 5.31646,-1.4691 c 0,-0.7285 -0.58399,-1.29447 -1.31257,-1.29447 h -1.80023 v 4.21468 h 1.97488 c 0.86095,0 1.30648,-0.59614 1.31257,-1.33067 0,-0.3733 -0.16261,-0.68641 -0.50578,-0.86096 0.20474,-0.16859 0.33113,-0.47572 0.33113,-0.72858 z m -1.21624,1.24637 c 0.43349,0 0.43958,0.71647 0.006,0.71647 h -0.86104 v -0.71647 z m -0.18063,-1.57747 c 0.43349,0 0.43349,0.68032 0.006,0.68032 h -0.6804 v -0.68032 z m 6.47853,1.14993 c 0,-2.91412 -4.32302,-2.91412 -4.32302,0 0,2.92024 4.32302,2.92024 4.32302,0 z m -3.21519,0 c 0,-1.51728 2.11342,-1.51728 2.11342,0 0,1.52935 -2.11342,1.52935 -2.11342,0 z m 4.39531,2.11342 h 2.49267 v 0.46365 h 0.88514 v -1.40898 h -0.43958 l -1.4932,-3.33561 h -0.46358 l -1.44502,3.33561 h -0.42754 v 1.40898 h 0.89111 z m 1.21026,-2.48063 0.60807,1.52326 h -1.19216 z"
       style="fill:#a50431;fill-opacity:1;fill-rule:evenodd;stroke:#ffffff;stroke-width:0;stroke-miterlimit:4;stroke-dasharray:none;stroke-opacity:1"
       id="path4749-5" />
  </g>
</svg>
